<svg enable-background="new 0 0 35.5 36.9" viewBox="0 0 35.5 36.9" xmlns="http://www.w3.org/2000/svg"><g clip-rule="evenodd" fill="#fff" fill-rule="evenodd"><path d="m31.9 18.9c-1.1-.7-2.3-1.2-3.5-1.5v-.3c1-.3 2-.8 2.9-1.4 1.9-1.5 2.9-3.6 2.9-6.2 0-2.7-1.1-5-3.2-6.8-2.1-1.8-5-2.7-8.7-2.7h-1.2l-4.4 7.1h4.5c1.5 0 2.7.3 3.5 1s1.2 1.6 1.2 2.7-.4 2-1.2 2.7-2 1-3.5 1h-2.2l-4.8 6.8h7.3c1.9 0 3.4.4 4.3 1.2s1.4 1.8 1.4 3.1-.5 2.3-1.4 3.1c-1 .8-2.4 1.2-4.3 1.2h-10.3v-4.1l-7.9 11.1h18.7c4.2 0 7.5-1 9.9-3s3.6-4.6 3.6-7.8c0-3.3-1.2-5.7-3.6-7.2z"/><path d="m17.2 14.5h-6.8l8.8-14.5h-7.7l-11.5 21.6h6.5l-5 15.3z"/></g></svg>