<svg enable-background="new 0 0 144.6 36.9" viewBox="0 0 144.6 36.9" xmlns="http://www.w3.org/2000/svg"><path d="m38.4 36.9v-36.9h7.9v29.5h18.2v7.4z"/><path d="m68.4 36.9v-36.9h8v36.9z"/><path d="m80.3 7.4v-7.4h31.6v7.4h-11.8v29.5h-7.9v-29.5z"/><path d="m114.3 36.9v-7.4l19.5-21.6v-.5h-19v-7.4h29.3v7.4l-19.5 21.6v.5h20v7.4z"/><g clip-rule="evenodd" fill-rule="evenodd"><path d="m31.9 18.9c-1.1-.7-2.3-1.2-3.5-1.5v-.3c1-.3 2-.8 2.9-1.4 1.9-1.5 2.9-3.6 2.9-6.2 0-2.7-1.1-5-3.2-6.8s-5-2.7-8.7-2.7h-1.2l-4.4 7.1h4.5c1.5 0 2.7.3 3.5 1s1.2 1.6 1.2 2.7-.4 2-1.2 2.7-2 1-3.5 1h-2.2l-4.8 6.8h7.3c1.9 0 3.4.4 4.3 1.2s1.4 1.8 1.4 3.1-.5 2.3-1.4 3.1c-1 .8-2.4 1.2-4.3 1.2h-10.3v-4.1l-7.9 11.1h18.7c4.2 0 7.5-1 9.9-3s3.6-4.6 3.6-7.8c0-3.3-1.2-5.7-3.6-7.2z"/><path d="m17.2 14.5h-6.8l8.8-14.5h-7.7l-11.5 21.6h6.5l-5 15.3z"/></g></svg>