<svg enable-background="new 0 0 495.9 512" viewBox="0 0 495.9 512" xmlns="http://www.w3.org/2000/svg" xmlns:xlink="http://www.w3.org/1999/xlink"><linearGradient id="a"><stop offset="0" stop-color="#ba5c25"/><stop offset=".0487" stop-color="#c06127"/><stop offset=".2766" stop-color="#da7331"/><stop offset=".4141" stop-color="#e37a34"/><stop offset=".4731" stop-color="#e98335"/><stop offset=".5708" stop-color="#f99d37"/><stop offset=".5987" stop-color="#ffa538"/></linearGradient><linearGradient id="b" gradientTransform="matrix(1 0 0 -1 0 514)" gradientUnits="userSpaceOnUse" x1="164.0415" x2="321.3215" xlink:href="#a" y1="235.6504" y2="508.0674"/><linearGradient id="c" gradientTransform="matrix(1 0 0 -1 0 514)" gradientUnits="userSpaceOnUse" x1="123.8876" x2="123.8876" y1="197.5471" y2="97.5621"><stop offset=".0319" stop-color="#8b451c"/><stop offset="1" stop-color="#8b451c" stop-opacity="0"/></linearGradient><linearGradient id="d"><stop offset="0" stop-color="#ffa538"/><stop offset="1" stop-color="#f7e041"/></linearGradient><linearGradient id="e" gradientTransform="matrix(.866 -.5 0 -1.155 -229.718 -379.898)" gradientUnits="userSpaceOnUse" x1="586.4279" x2="586.4279" xlink:href="#d" y1="-1166.1155" y2="-623.3996"/><linearGradient id="f"><stop offset=".0319" stop-color="#fff"/><stop offset="1" stop-color="#fff" stop-opacity="0"/></linearGradient><linearGradient id="g" gradientTransform="matrix(1 0 0 -1 0 514)" gradientUnits="userSpaceOnUse" x1="329.3873" x2="225.2473" xlink:href="#f" y1="211.0184" y2="271.1434"/><linearGradient id="h" gradientTransform="matrix(.866 -.5 0 -1.155 -229.718 -379.898)" gradientUnits="userSpaceOnUse" x1="586.4274" x2="586.4274" xlink:href="#d" y1="-888.7615" y2="-547.7355"/><linearGradient id="i" gradientUnits="userSpaceOnUse" x1="221.7334" x2="349.2244" y1="244.1812" y2="119.3489"><stop offset="0" stop-color="#ba5c25"/><stop offset=".2285" stop-color="#da7331"/><stop offset=".2378" stop-color="#c06127"/><stop offset=".3872" stop-color="#ffa538"/><stop offset=".5147" stop-color="#e98335"/><stop offset=".6064" stop-color="#f99d37"/><stop offset=".6566" stop-color="#e78c32"/><stop offset=".9972" stop-color="#ba5c25"/></linearGradient><linearGradient id="j" gradientUnits="userSpaceOnUse" x1="188.6679" x2="345.3193" y1="398.9344" y2="245.5498"><stop offset=".2984" stop-color="#c06127"/><stop offset=".6173" stop-color="#f99d37"/><stop offset=".8091" stop-color="#e78c32"/></linearGradient><linearGradient id="k" gradientTransform="matrix(1 0 0 -1 0 514)" gradientUnits="userSpaceOnUse" x1="292.6716" x2="292.6716" xlink:href="#a" y1="31.0371" y2="458.6961"/><linearGradient id="l" gradientUnits="userSpaceOnUse" x1="240.9176" x2="343.9754" y1="267.1685" y2="167.1879"><stop offset="0" stop-color="#da7331"/><stop offset=".3338" stop-color="#c06127"/><stop offset=".3457" stop-color="#e98335"/><stop offset=".5633" stop-color="#f99d37"/><stop offset=".6195" stop-color="#e78c32"/><stop offset=".7635" stop-color="#ba5c25"/></linearGradient><linearGradient id="m" gradientUnits="userSpaceOnUse" x1="228.8734" x2="199.4744" y1="321.9589" y2="411.8534"><stop offset=".2984" stop-color="#c06127"/><stop offset=".8091" stop-color="#e78c32"/></linearGradient><linearGradient id="n" gradientUnits="userSpaceOnUse" x1="266.7557" x2="338.7109" y1="182.095" y2="111.6403"><stop offset="0" stop-color="#ba5c25"/><stop offset=".1863" stop-color="#da7331"/><stop offset=".3872" stop-color="#ffa538"/><stop offset=".4965" stop-color="#e98335"/><stop offset=".5061" stop-color="#f99d37"/><stop offset=".9972" stop-color="#ba5c25"/></linearGradient><linearGradient id="o" gradientUnits="userSpaceOnUse" x1="177.1016" x2="336.8496" y1="266.4368" y2="118.0056"><stop offset="0" stop-color="#ba5c25"/><stop offset=".0333" stop-color="#c06127"/><stop offset=".5496" stop-color="#e98335"/><stop offset=".5497" stop-color="#ffa538"/><stop offset=".838" stop-color="#ba5c25"/></linearGradient><linearGradient id="p" gradientUnits="userSpaceOnUse" x1="202.6819" x2="182.611" y1="337.3622" y2="427.8538"><stop offset=".07881198" stop-color="#ba5c25"/><stop offset=".9474" stop-color="#e98335"/></linearGradient><linearGradient id="q" gradientUnits="userSpaceOnUse" x1="200.7125" x2="358.5544" xlink:href="#d" y1="277.1044" y2="277.1044"/><linearGradient id="r" gradientUnits="userSpaceOnUse" x1="184.5362" x2="278.653" xlink:href="#d" y1="289.3469" y2="289.3469"/><linearGradient id="s" gradientUnits="userSpaceOnUse" x1="287.7567" x2="214.0591" xlink:href="#f" y1="331.0359" y2="272.4984"/><linearGradient id="t" gradientUnits="userSpaceOnUse" x1="355.6763" x2="275.7663" xlink:href="#f" y1="252.2015" y2="195.6906"/><linearGradient id="u" gradientUnits="userSpaceOnUse" x1="240.1185" x2="205.2903" xlink:href="#f" y1="399.4413" y2="377.2574"/><path d="m384.2 45-60.1-34.6c-28.6-16-65.8-14.2-106.3 9.2-90.7 52.4-164.2 192.9-164.2 313.8 0 68.4 23.6 115.9 60.4 134.8l57.7 33.4z" fill="url(#b)"/><path d="m171.4 412.3-117.6-67.9c2.4 62.5 25.4 105.9 60.2 123.7l57.7 33.4 22.3-48z" fill="url(#c)"/><path d="m442.3 178.6c0-120.9-73.5-176.5-164.2-124.1s-164.2 192.8-164.2 313.7 73.5 176.5 164.2 124.1 164.2-192.8 164.2-313.7z" fill="url(#e)"/><path d="m278.1 54.5c-90.7 52.4-164.2 192.8-164.2 313.7 0 65.9 21.8 112.4 56.4 132.5l231.6-442.6c-30.1-28.6-74.4-32.1-123.8-3.6z" fill="url(#g)"/><path d="m410.7 196.8c0-97.6-59.4-142.5-132.6-100.2s-132.6 155.7-132.6 253.3 59.4 142.5 132.6 100.2c73.3-42.2 132.6-155.6 132.6-253.3z" fill="url(#h)"/><path clip-rule="evenodd" d="m269.8 210-10.4 6.2c-.2.1-.4.3-.5.6l-23.1 59.4c-.2.4-.1.9.2 1.2l17.1 19c.5.6 1.5.5 1.9-.1l29.7-45.7c.2-.3.5-.5.9-.5 2.7-.3 5 .1 6.8 1.3 1.6 1 2.9 2.4 3.9 4.1.5.8 1.6.8 2 0l12.7-21v-.1l12.5-24.9c-.4-.1-.8-.3-1.3-.4-4.9-1.5-7.3-13.6-2.9-20.2 9.3-15.8 14.2-33.1 14.2-50.9 0-18.5-5.4-31-15.7-37.2s-24.5-3.9-42.6 6.8l-5.5 3.3c-.2.1-.4.4-.5.6l-21.2 60.3c-.1.4-.1.9.2 1.2l16.8 18.7c.6.7 1.7.5 2-.4l12.8-35.5c.2-.4.5-.7 1-.8 2.4-.3 4.5 0 6.2 1.1 3.9 2.5 5.9 7.5 5.9 15s-2 14.9-5.9 22c-3.9 7-9.8 12.6-17.2 16.9z" fill="url(#i)" fill-rule="evenodd"/><path clip-rule="evenodd" d="m323.6 256.2v-17.9l-26.6 18.2c1.5 3 2.3 6.9 2.3 12.1 0 8.9-2.5 17.2-6.9 25.3-4.9 8.4-11.8 15.2-21.1 20.7l-50.5 30v-28.1l-38.7 99 18.6 20.7 21.6-25.4 4.3-21.7 47.2-28c20.6-12.2 36.8-28.7 48.5-49.3 10.3-18 16-36.5 17.4-55.5h-16.1z" fill="url(#j)" fill-rule="evenodd"/><path d="m344.9 82.1c18.2 19.8 29.1 51.9 29.1 93.7 0 97.6-59.4 211.1-132.6 253.4-24.4 14.1-47.2 18.5-66.8 14.5 24.3 26.4 61.6 30.7 103.5 6.6 73.2-42.3 132.6-155.7 132.6-253.4 0-65.2-26.4-106.9-65.8-114.8z" fill="url(#k)"/><g clip-rule="evenodd" fill-rule="evenodd"><path d="m319.4 188.9c4.8-8.1 8.4-16.6 10.8-25.4l-37.3 9.3c-.3 6.9-2.2 13.7-5.8 20.3-3.9 7.1-9.8 12.7-17.2 17l-10.4 6.2c-.2.1-.4.3-.5.6l-23.1 59.4c-.2.4-.1.9.2 1.2l17.1 19c.5.6 1.5.5 1.9-.1l29.7-45.7c.2-.3.5-.5.9-.5 2.7-.3 5 .1 6.8 1.3 1.6 1 2.9 2.4 3.9 4.1.5.8 1.6.8 2 0l12.7-21v-.1l12.5-24.9c-.4-.1-.8-.3-1.3-.4-4.9-1.6-7.3-13.8-2.9-20.3z" fill="url(#l)"/><path d="m239.4 337.2-17.6-19.7-40.7 103 19.6 15.7z" fill="url(#m)"/><path d="m317.9 100.7c-10.3-6.2-24.5-3.9-42.6 6.8l-5.9 3.5-21.6 61.4 18.6 20.7s26.5-21 26.4-20.5l47.8 5.6c2.3-8.3 11.5-14 11.5-22.7 0-29.9-23.9-48.5-34.2-54.8z" fill="url(#n)"/><path d="m278.7 137.3-18.7-20.7-25.9 15.4c-5.1 5.4-10.1 11.1-15 17.1l-53.2 171.3 18.6 20.7z" fill="url(#o)"/><path d="m173.3 420.7 18.6 20.7 24.5-119.3-26 15.5z" fill="url(#p)"/><path d="m340.9 229.7c-5.4-1.6-11.3-1.5-17.2-.1v-2.1c4.9-5 9.8-11.3 14.2-18 9.3-15.8 14.2-33.1 14.2-50.9 0-18.5-5.4-31-15.7-37.2s-24.5-3.9-42.6 6.8l-5.9 3.5-21.6 61.4 22.1-13.1c7.4-4.4 13.2-5.8 17.2-3.3 3.9 2.5 5.9 7.5 5.9 15s-2 14.9-5.9 22-9.8 12.7-17.2 17l-10.8 6.4-23.5 60.5 35.8-21.2c9.3-5.5 16.7-7.2 21.1-4.3s6.9 8.3 6.9 17.2-2.5 17.2-6.9 25.3c-4.9 8.4-11.8 15.2-21.1 20.7l-50.5 30v-28.1l-38.7 99 91.7-54.4c20.6-12.2 36.8-28.7 48.5-49.3 11.8-20.7 17.6-42 17.6-63.9.1-22.6-5.8-35.6-17.6-38.9z" fill="url(#q)"/><path d="m268.8 242.4-33.3 19.8 43.1-124.9-37.7 22.4-56.4 181.3 31.9-18.9-24.5 119.3z" fill="url(#r)"/><path d="m216.4 322.1-24.5 119.3 76.9-199-33.3 19.8 43.2-124.9-37.8 22.4-56.4 181.3z" fill="url(#s)"/><path d="m336.5 121.5c-10.3-6.2-24.5-3.9-42.6 6.8l-5.9 3.5-21.6 61.4 22.1-13.1c7.4-4.4 13.2-5.8 17.2-3.3 3.9 2.5 5.9 7.5 5.9 15s-2 14.9-5.9 22-9.8 12.7-17.2 17l-10.8 6.4-23.5 60.5 32.6-19.3 65.2-124.9c-.9-15.6-6.2-26.4-15.5-32z" fill="url(#t)"/><path d="m239.4 365.3v-28.1l-38.7 99 4.9-3 36.4-69.5z" fill="url(#u)"/></g></svg>