<svg enable-background="new 0 0 512 512" height="512" viewBox="0 0 512 512" width="512" xmlns="http://www.w3.org/2000/svg" xmlns:xlink="http://www.w3.org/1999/xlink"><linearGradient id="a"><stop offset="0" stop-color="#43386b"/><stop offset=".2476" stop-color="#7662bd"/><stop offset=".5271" stop-color="#8f7cd4"/><stop offset=".8066" stop-color="#a28fe5"/><stop offset="1" stop-color="#a996eb"/></linearGradient><linearGradient id="b" gradientUnits="userSpaceOnUse" x1="178.807" x2="227.023" xlink:href="#a" y1="273.529" y2="190.016"/><linearGradient id="c"><stop offset="0" stop-color="#43386b"/><stop offset="1" stop-color="#7662bd"/></linearGradient><linearGradient id="d" gradientUnits="userSpaceOnUse" x1="355.468" x2="355.468" xlink:href="#c" y1="598.822" y2="149.523"/><linearGradient id="e" gradientUnits="userSpaceOnUse" x1="375.492" x2="375.492" xlink:href="#c" y1="354.964" y2="219.627"/><linearGradient id="f" gradientUnits="userSpaceOnUse" x1="403.088" x2="403.088" xlink:href="#c" y1="354.963" y2="219.627"/><linearGradient id="g" gradientUnits="userSpaceOnUse" x1="430.67" x2="430.67" xlink:href="#c" y1="354.963" y2="219.627"/><linearGradient id="h" gradientUnits="userSpaceOnUse" x1="375.492" x2="375.492" xlink:href="#c" y1="354.963" y2="219.627"/><linearGradient id="i" gradientUnits="userSpaceOnUse" x1="413.268" x2="383.297" y1="244.4" y2="227.096"><stop offset=".0319" stop-color="#fff"/><stop offset="1" stop-color="#fff" stop-opacity="0"/></linearGradient><linearGradient id="j" gradientUnits="userSpaceOnUse" x1="278.642" x2="318.61" xlink:href="#a" y1="344.506" y2="275.28"/><linearGradient id="k" gradientTransform="matrix(.866 -.5 0 1.155 -308.912 -498.549)" gradientUnits="userSpaceOnUse" x1="711.946" x2="711.946" xlink:href="#c" y1="1077.342" y2="970.044"/><linearGradient id="l" gradientUnits="userSpaceOnUse" x1="300.505" x2="325.775" xlink:href="#a" y1="352.317" y2="308.548"/><linearGradient id="m" gradientTransform="matrix(.866 -.5 0 1.155 -308.912 -498.549)" gradientUnits="userSpaceOnUse" x1="724.881" x2="724.881" xlink:href="#c" y1="1075.383" y2="1007.543"/><linearGradient id="n" gradientUnits="userSpaceOnUse" x1="355.468" x2="355.468" xlink:href="#c" y1="357.34" y2="479.863"/><linearGradient id="o" gradientUnits="userSpaceOnUse" x1="461.127" x2="461.127" xlink:href="#c" y1="192.38" y2="341.399"/><path d="m492.566 115.842-198.999-115.077c-1.658-1.085-3.873-1.056-6.308.35l-261.454 155.665c-5.136 2.965-9.299 10.92-9.299 17.768v214.272c0 4.045 1.454 6.798 3.702 7.763l194.568 112.492 3.484 2.04z" fill="url(#b)"/><path d="m486.196 355.219-261.455 155.665c-5.136 2.965-9.299-.182-9.299-7.03v-214.272c0-6.848 4.163-14.803 9.299-17.768l261.455-155.664c5.136-2.965 9.299.182 9.299 7.03v214.272c0 6.847-4.164 14.802-9.299 17.767z" fill="url(#d)"/><path d="m472.469 151.121-5.119 182.499-228.882 142.293v-185.473z" fill="#dfdaef"/><path d="m382.453 279.87c0-5.126-3.117-7.482-6.961-5.263-3.844 2.22-6.961 8.174-6.961 13.301s3.117 7.482 6.961 5.263c3.845-2.22 6.961-8.175 6.961-13.301z" fill="url(#e)"/><path d="m410.049 263.942c0-5.126-3.117-7.482-6.961-5.263-3.844 2.22-6.961 8.174-6.961 13.301 0 5.126 3.117 7.482 6.961 5.262 3.845-2.219 6.961-8.174 6.961-13.3z" fill="url(#f)"/><path d="m437.631 248.072c0-5.126-3.117-7.482-6.961-5.262-3.845 2.22-6.961 8.174-6.961 13.301 0 5.126 3.117 7.482 6.961 5.262s6.961-8.175 6.961-13.301z" fill="url(#g)"/><path d="m382.453 309.409c0-5.126-3.117-7.482-6.961-5.263-3.844 2.22-6.961 8.174-6.961 13.301 0 5.126 3.117 7.482 6.961 5.263 3.845-2.22 6.961-8.175 6.961-13.301z" fill="url(#h)"/><path d="m410.049 293.481c0-5.126-3.117-7.482-6.961-5.263-3.844 2.22-6.961 8.175-6.961 13.301s3.117 7.482 6.961 5.262c3.845-2.219 6.961-8.173 6.961-13.3z" fill="url(#f)"/><path d="m437.631 277.611c0-5.126-3.117-7.482-6.961-5.263-3.845 2.22-6.961 8.175-6.961 13.301s3.117 7.482 6.961 5.262c3.844-2.219 6.961-8.174 6.961-13.3z" fill="url(#g)"/><path d="m382.453 338.554c0-5.126-3.117-7.482-6.961-5.263-3.844 2.22-6.961 8.174-6.961 13.301s3.117 7.482 6.961 5.263c3.845-2.22 6.961-8.175 6.961-13.301z" fill="url(#h)"/><path d="m410.049 322.626c0-5.126-3.117-7.482-6.961-5.262s-6.961 8.174-6.961 13.301c0 5.126 3.117 7.482 6.961 5.263 3.845-2.221 6.961-8.175 6.961-13.302z" fill="url(#f)"/><path d="m437.631 306.756c0-5.126-3.117-7.482-6.961-5.262-3.845 2.22-6.961 8.174-6.961 13.301 0 5.126 3.117 7.482 6.961 5.263 3.844-2.221 6.961-8.176 6.961-13.302z" fill="url(#g)"/><path d="m375.492 228.839 47.182-27.241v24.007l-47.182 27.24z" fill="#06daae"/><path d="m375.492 228.839v24.006l13.609-7.857 18.005-34.401z" fill="url(#i)"/><path d="m334.578 285.217-15.273-8.788c-7.281-4.059-16.71-3.611-27.02 2.341-23.042 13.303-41.721 48.994-41.721 79.717 0 17.39 5.988 29.454 15.361 34.244l14.657 8.483z" fill="url(#j)"/><path d="m349.355 319.157c0-30.723-18.679-44.844-41.721-31.541s-41.722 48.994-41.722 79.717 18.679 44.844 41.722 31.541c23.042-13.303 41.721-48.994 41.721-79.717z" fill="url(#k)"/><path d="m335.871 314.831-9.656-5.556c-4.603-2.566-10.565-2.283-17.084 1.48-14.569 8.411-26.379 30.977-26.379 50.402 0 10.995 3.786 18.623 9.712 21.651l9.267 5.364z" fill="url(#l)"/><path d="m345.214 336.29c0-19.425-11.81-28.353-26.379-19.942s-26.379 30.977-26.379 50.401 11.81 28.353 26.379 19.942 26.379-30.976 26.379-50.401z" fill="url(#m)"/><path d="m238.468 475.913 234.001-139.319-22.683-13.177-211.318 122.004z" fill="url(#n)"/><path d="m449.786 164.626v158.791l22.683 13.177v-185.473z" fill="url(#o)"/></svg>