<svg enable-background="new 0 0 512 512" height="512" viewBox="0 0 512 512" width="512" xmlns="http://www.w3.org/2000/svg" xmlns:xlink="http://www.w3.org/1999/xlink"><linearGradient id="a"><stop offset="0" stop-color="#bf942a"/><stop offset="1" stop-color="#ffc538"/></linearGradient><linearGradient id="b" gradientUnits="userSpaceOnUse" x1="108.963" x2="375.622" xlink:href="#a" y1="168.469" y2="334.451"/><linearGradient id="c" gradientUnits="userSpaceOnUse" x1="243.917" x2="444.436" xlink:href="#a" y1="421.122" y2="304.75"/><linearGradient id="d" gradientUnits="userSpaceOnUse" x1="457.435" x2="217.974" xlink:href="#a" y1="-46.27" y2="144.815"/><linearGradient id="e" gradientUnits="userSpaceOnUse" x1="64.288" x2="222.324" xlink:href="#a" y1="176.468" y2="274.837"/><linearGradient id="f" gradientUnits="userSpaceOnUse" x1="260.701" x2="441.313" xlink:href="#a" y1="280.841" y2="176.021"/><linearGradient id="g"><stop offset="0" stop-color="#43386b"/><stop offset="1" stop-color="#594a8e"/></linearGradient><linearGradient id="h" gradientUnits="userSpaceOnUse" x1="249.294" x2="249.294" xlink:href="#g" y1="174.412" y2="404.865"/><linearGradient id="i" gradientUnits="userSpaceOnUse" x1="249.294" x2="249.294" xlink:href="#g" y1="47.835" y2="128.861"/><linearGradient id="j" gradientTransform="matrix(.095 .762 1.32 .055 4135.708 -2854.526)" gradientUnits="userSpaceOnUse" x1="4120.776" x2="4120.776" xlink:href="#g" y1="-3221.38" y2="-3091.447"/><linearGradient id="k" gradientTransform="matrix(1.32 .055 .095 .762 663.571 -849.826)" gradientUnits="userSpaceOnUse" x1="-413.982" x2="-413.982" xlink:href="#g" y1="1314.768" y2="1478.507"/><linearGradient id="l" gradientTransform="matrix(-1 0 0 1 -2048.206 0)" gradientUnits="userSpaceOnUse" x1="-2193.465" x2="-2193.465" xlink:href="#g" y1="169.89" y2="334.432"/><linearGradient id="m" gradientTransform="matrix(-1 0 0 1 -2048.206 0)" gradientUnits="userSpaceOnUse" x1="-2297.177" x2="-2297.177" xlink:href="#g" y1="48.203" y2="129.024"/><linearGradient id="n"><stop offset="0" stop-color="#43386b"/><stop offset="1" stop-color="#7662bd"/></linearGradient><linearGradient id="o" gradientUnits="userSpaceOnUse" x1="281.792" x2="338.476" xlink:href="#n" y1="108.543" y2="48.445"/><linearGradient id="p" gradientUnits="userSpaceOnUse" x1="341.786" x2="389.134" xlink:href="#g" y1="74.504" y2="100.197"/><linearGradient id="q" gradientTransform="matrix(-1 0 0 1 -2048.103 0)" gradientUnits="userSpaceOnUse" x1="-2271.634" x2="-2295.42" xlink:href="#g" y1="144.013" y2="108.939"/><linearGradient id="r" gradientTransform="matrix(-1 0 0 1 -2048.103 0)" gradientUnits="userSpaceOnUse" x1="-2321.261" x2="-2321.261" xlink:href="#g" y1="108.162" y2="159.779"/><linearGradient id="s" gradientUnits="userSpaceOnUse" x1="129.613" x2="151.294" xlink:href="#n" y1="204.275" y2="169.095"/><linearGradient id="t" gradientUnits="userSpaceOnUse" x1="224.412" x2="121.296" xlink:href="#g" y1="153.063" y2="232.895"/><path d="m456.769 120.129-207.309 119.251-207.31-120.129v95.785l13.23 7.638v177.275l194.08 112.051 194.079-112.051v-177.275l13.23-7.638z" fill="url(#b)"/><path d="m249.46 512 194.079-112.052v-188.362l-194.079 111.641z" fill="url(#c)"/><path d="m248.699 0-206.549 119.251 207.31 120.129 207.309-119.251z" fill="url(#d)"/><path d="m42.15 119.251v95.785l207.31 119.69v-95.346z" fill="url(#e)"/><path d="m249.46 334.726 207.309-119.69v-94.907l-207.309 119.251z" fill="url(#f)"/><path d="m169.105 45.896-47.563 27.46 208.069 120.129v272.181l47.435-27.387v-272.328z" fill="url(#h)"/><path d="m377.046 165.951-207.942-120.055-47.562 27.46 208.069 120.129z" fill="url(#i)"/><path d="m270.311 87.171 194.35 8.73-41.506 19.035 46.695 22.691-194.519-8.737z" fill="url(#j)"/><path d="m203.071 125.992 19.869 123.888 32.97-26.959 39.302 26.959-19.881-120.99z" fill="url(#k)"/><path d="m168.976 465.666v-272.181l-47.434-27.534v272.329z" fill="url(#l)"/><path d="m121.542 165.951 207.296-119.683 47.563 27.46-207.425 119.757z" fill="url(#m)"/><path d="m394.797 36.066-39.987-23.349c-1.664-.863-3.472-1.407-5.411-1.545-28.682-2.042-94.947 81.878-94.947 81.878l37.844 22.004 41.81-32.219c.449-.202.897-.39 1.346-.599 9.261-4.307 16.147-10.154 21.038-16.651z" fill="url(#o)"/><path d="m292.295 115.054s66.266-83.921 94.947-81.878c21.628 1.54 27.586 51.748-13.948 71.064-40.58 18.873-80.999 10.814-80.999 10.814z" fill="url(#p)"/><path d="m219.552 88.689 11.921-6.883c4.511-2.604 9.657-1.9 13.286.865l47.56 27.459-43.025 36.888-47.563-27.462c0-12.734 6.793-24.501 17.821-30.867z" fill="url(#q)"/><path d="m297.022 119.653c0-9.231-9.993-15-17.987-10.385l-11.921 6.882c-11.028 6.367-17.821 18.133-17.821 30.867z" fill="url(#r)"/><path d="m145.656 229.579 101.03-89.854-38.556-22.106s-152.672 10.087-130.44 67.116c1.699 4.359 3.927 7.508 6.583 9.633v.001c1.26 1.006 61.383 35.21 61.383 35.21z" fill="url(#s)"/><path d="m246.687 139.726s-131.3 22.134-109.069 79.163c22.231 57.027 109.069-79.163 109.069-79.163z" fill="url(#t)"/></svg>