<svg enable-background="new 0 0 512 512" height="512" viewBox="0 0 512 512" width="512" xmlns="http://www.w3.org/2000/svg" xmlns:xlink="http://www.w3.org/1999/xlink"><linearGradient id="a"><stop offset="0" stop-color="#43386b"/><stop offset=".3794" stop-color="#554687"/><stop offset="1" stop-color="#7662bd"/></linearGradient><linearGradient id="b" gradientTransform="matrix(.572 -.82 .82 .572 -88.62 302.361)" gradientUnits="userSpaceOnUse" x1="279.882" x2="279.882" xlink:href="#a" y1="-47.838" y2="326.372"/><linearGradient id="c" gradientTransform="matrix(.974 .016 -.043 1.026 17.611 -10.491)" gradientUnits="userSpaceOnUse" x1="504.997" x2="390.381" xlink:href="#a" y1="377.987" y2="40.557"/><linearGradient id="d" gradientTransform="matrix(.974 .016 -.043 1.026 17.611 -10.491)" gradientUnits="userSpaceOnUse" x1="384.218" x2="488.748" xlink:href="#a" y1="64.385" y2="262.441"/><linearGradient id="e" gradientUnits="userSpaceOnUse" x1="136.562" x2="120.406" y1="330.008" y2="302.024"><stop offset="0" stop-color="#d7d1eb"/><stop offset=".8296" stop-color="#e9e5f6"/><stop offset="1" stop-color="#d7d1eb"/></linearGradient><linearGradient id="f" gradientUnits="userSpaceOnUse" x1="123.368" x2="123.368" y1="359.417" y2="315.33"><stop offset="0" stop-color="#dfdaef"/><stop offset="1" stop-color="#f2effa"/></linearGradient><path d="m106.355 155.43c-4.136 0-8.197-1.993-10.679-5.678-.808-1.186-19.349-27.842-46.062-21.528-6.912 1.632-13.842-2.646-15.477-9.56-1.633-6.914 2.647-13.842 9.56-15.476 44.247-10.455 72.176 30.488 73.344 32.236 3.944 5.908 2.351 13.895-3.556 17.84-2.193 1.465-4.675 2.166-7.13 2.166z" fill="#cc8241"/><path d="m417.537 345.613-57.756-166.728c-5.177-14.945-22.156-19.766-34.225-12.878l-.001-.003-.081.046c-.04.023-.08.046-.119.069l-34.738 20.058 83.6 206.531 30.515-17.618c10.378-4.696 17.246-16.658 12.805-29.477z" fill="#5d3645"/><path d="m282.048 194.865-57.756 100.037c-6.552 11.348-2.664 25.858 8.684 32.41l115.513 66.691c19.024 10.983 41.472-7.556 34.281-28.313l-57.756-166.728c-6.654-19.207-32.802-21.7-42.966-4.097z" fill="#966d7d"/><path d="m162.624 92.112.004.007c-31.297 10.147-59.664 30.206-79.936 59.273-49.412 70.85-32.033 168.341 38.816 217.752 53.936 37.616 123.309 36.516 175.159 2.592l.004.008 184.767-116.32-107.458-233.103z" fill="url(#b)"/><path d="m436.934 41.261c-47.719-36.969-91.866-22.755-98.606 31.747s26.479 128.654 74.198 165.622c47.718 36.968 91.865 22.754 98.605-31.748 6.74-54.501-26.479-128.653-74.197-165.621z" fill="url(#c)"/><path d="m434.198 63.385c-37.021-28.681-71.272-17.654-76.5 24.63-5.229 42.284 20.543 99.812 57.564 128.493s71.271 17.653 76.5-24.631-20.543-99.812-57.564-128.492z" fill="url(#d)"/><path d="m243.93 446.652-57.756-166.728c-5.177-14.946-22.156-19.766-34.225-12.878l-.001-.003-.081.047c-.04.023-.08.046-.119.069l-34.738 20.058 83.6 206.53 30.515-17.618c10.378-4.696 17.246-16.659 12.805-29.477z" fill="#5d3645"/><path d="m108.441 295.904-57.756 100.037c-6.551 11.348-2.663 25.858 8.684 32.41l115.513 66.691c19.024 10.984 41.472-7.556 34.281-28.313l-57.756-166.728c-6.654-19.207-32.802-21.701-42.966-4.097z" fill="#966d7d"/><path d="m121.376 301.346.003.007c3.124-1.763 7.178-1.581 11.613.979 9.869 5.698 17.869 20.984 17.869 34.142 0 7.171-2.379 12.223-6.139 14.42l.003.007-9.725 5.585-23.335-49.565z" fill="url(#e)"/><path d="m105.499 321.367c0-13.159 8-19.207 17.869-13.509s17.869 20.984 17.869 34.142-8 19.206-17.869 13.509c-9.868-5.698-17.869-20.984-17.869-34.142z" fill="url(#f)"/><path d="m32.718 76.602 11.889 17.187 20.829 1.703-8.941 18.89 8.941 18.889-20.829 1.703-11.889 17.187-11.889-17.187-20.829-1.703 8.94-18.889-8.94-18.89 20.829-1.703z" fill="#f7e041"/></svg>