<svg enable-background="new 0 0 512 512" viewBox="0 0 512 512" xmlns="http://www.w3.org/2000/svg" xmlns:xlink="http://www.w3.org/1999/xlink"><linearGradient id="a" gradientTransform="matrix(1 0 0 -1 0 514)" gradientUnits="userSpaceOnUse" x1="252.926" x2="252.926" y1="28.314" y2="350.741"><stop offset=".0319" stop-color="#a996eb"/><stop offset=".1442" stop-color="#b3a3ed"/><stop offset=".5109" stop-color="#d0c7f2"/><stop offset=".8092" stop-color="#e2ddf5"/><stop offset="1" stop-color="#e9e5f6"/></linearGradient><linearGradient id="b"><stop offset="0" stop-color="#dfdaef"/><stop offset="1" stop-color="#fff"/></linearGradient><linearGradient id="c" gradientTransform="matrix(1 0 0 -1 0 514)" gradientUnits="userSpaceOnUse" x1="271.136" x2="271.136" xlink:href="#b" y1="-205.67" y2="431.667"/><linearGradient id="d" gradientTransform="matrix(1 0 0 -1 0 514)" gradientUnits="userSpaceOnUse" x1="153.575" x2="211.51" y1="239.127" y2="339.473"><stop offset="0" stop-color="#236568"/><stop offset=".0842" stop-color="#276a6c"/><stop offset=".1825" stop-color="#337878"/><stop offset=".2877" stop-color="#488f8c"/><stop offset=".3979" stop-color="#64b0a8"/><stop offset=".5109" stop-color="#88dacc"/><stop offset=".5636" stop-color="#9bf0df"/><stop offset="1" stop-color="#aff3e5"/></linearGradient><linearGradient id="e" gradientTransform="matrix(1 0 0 -1 0 514)" gradientUnits="userSpaceOnUse" x1="300.5971" x2="249.0381" y1="314.3541" y2="403.6581"><stop offset="0" stop-color="#2f878a"/><stop offset="1" stop-color="#06daae"/></linearGradient><linearGradient id="f" gradientTransform="matrix(1 0 0 -1 0 514)" gradientUnits="userSpaceOnUse" x1="386.7932" x2="404.0842" y1="439.8023" y2="469.7513"><stop offset="0" stop-color="#ab2c37"/><stop offset=".1211" stop-color="#c53441"/><stop offset=".3507" stop-color="#ff4757"/><stop offset=".5014" stop-color="#ff717d"/><stop offset=".6463" stop-color="#ff959d"/><stop offset="1" stop-color="#ff7a85"/></linearGradient><linearGradient id="g" gradientTransform="matrix(.866 -.5 0 -1.155 -315.478 -501.882)" gradientUnits="userSpaceOnUse" x1="826.9018" x2="826.9018" y1="-877.3627" y2="-830.9437"><stop offset="0" stop-color="#ab2c37"/><stop offset="1" stop-color="#ff4757"/></linearGradient><linearGradient id="h"><stop offset=".0319" stop-color="#a996eb"/><stop offset=".6819" stop-color="#d7cff3"/><stop offset="1" stop-color="#e9e5f6"/></linearGradient><linearGradient id="i" gradientTransform="matrix(1 0 0 -1 0 514)" gradientUnits="userSpaceOnUse" x1="394.2276" x2="407.0106" xlink:href="#h" y1="429.4728" y2="451.6138"/><linearGradient id="j" gradientTransform="matrix(1 0 0 -1 0 514)" gradientUnits="userSpaceOnUse" x1="406.7486" x2="409.8706" y1="452.8466" y2="458.2536"><stop offset=".0319" stop-color="#a996eb"/><stop offset=".3417" stop-color="#bbacee"/><stop offset=".9827" stop-color="#e8e3f6"/><stop offset="1" stop-color="#e9e5f6"/></linearGradient><linearGradient id="k" gradientTransform="matrix(1 0 0 -1 0 514)" gradientUnits="userSpaceOnUse" x1="397.095" x2="398.95" xlink:href="#h" y1="444.443" y2="447.656"/><linearGradient id="l" gradientTransform="matrix(1 0 0 -1 0 514)" gradientUnits="userSpaceOnUse" x1="404.251" x2="404.251" xlink:href="#b" y1="426.988" y2="463.371"/><linearGradient id="m"><stop offset=".0319" stop-color="#7662bd"/><stop offset="1" stop-color="#7662bd" stop-opacity="0"/></linearGradient><linearGradient id="n" gradientTransform="matrix(1 0 0 -1 0 514)" gradientUnits="userSpaceOnUse" x1="399.5265" x2="399.0135" xlink:href="#m" y1="441.7409" y2="439.5669"/><linearGradient id="o" gradientTransform="matrix(1 0 0 -1 0 514)" gradientUnits="userSpaceOnUse" x1="403.9521" x2="408.9091" xlink:href="#m" y1="437.6852" y2="433.8862"/><linearGradient id="p" gradientTransform="matrix(1 0 0 -1 0 514)" gradientUnits="userSpaceOnUse" x1="336.3656" x2="353.6556" y1="410.6562" y2="440.6052"><stop offset=".0319" stop-color="#a996eb"/><stop offset=".0645" stop-color="#b3a3ed"/><stop offset=".1414" stop-color="#c7bbf0"/><stop offset=".2286" stop-color="#d6cef3"/><stop offset=".3305" stop-color="#e1dbf5"/><stop offset=".4611" stop-color="#e7e3f6"/><stop offset=".719" stop-color="#e9e5f6"/><stop offset=".7626" stop-color="#dfdaf0"/><stop offset=".8254" stop-color="#d9d3ec"/><stop offset="1" stop-color="#d7d1eb"/></linearGradient><linearGradient id="q" gradientTransform="matrix(.866 -.5 0 -1.155 -315.478 -501.882)" gradientUnits="userSpaceOnUse" x1="768.6714" x2="768.6714" xlink:href="#b" y1="-877.3907" y2="-830.9717"/><linearGradient id="r" gradientTransform="matrix(1 0 0 -1 0 514)" gradientUnits="userSpaceOnUse" x1="345.4899" x2="350.5929" y1="402.3645" y2="411.2035"><stop offset="0" stop-color="#43386b"/><stop offset=".3252" stop-color="#7662bd"/><stop offset="1" stop-color="#a996eb"/></linearGradient><linearGradient id="s" gradientTransform="matrix(1 0 0 -1 0 514)" gradientUnits="userSpaceOnUse" x1="353.6305" x2="353.6305" y1="400.763" y2="420.647"><stop offset="0" stop-color="#43386b"/><stop offset="1" stop-color="#7662bd"/></linearGradient><linearGradient id="t" gradientTransform="matrix(.9586 -.136 0 -1 7.5587 538.851)" gradientUnits="userSpaceOnUse" x1="351.0079" x2="382.3351" y1="228.2862" y2="282.5472"><stop offset="0" stop-color="#ab2c37"/><stop offset=".1655" stop-color="#ae2d38"/><stop offset=".3011" stop-color="#b8303c"/><stop offset=".426" stop-color="#ca3643"/><stop offset=".5439" stop-color="#e13e4c"/><stop offset=".6531" stop-color="#ff4757"/><stop offset=".8422" stop-color="#ff7a85"/></linearGradient><linearGradient id="u" gradientTransform="matrix(.9586 -.136 0 -1 7.5587 538.851)" gradientUnits="userSpaceOnUse" x1="361.4583" x2="361.4583" y1="111.0407" y2="291.4603"><stop offset="0" stop-color="#ff4757"/><stop offset="1" stop-color="#ff7a85"/></linearGradient><linearGradient id="v" gradientTransform="matrix(.9586 -.136 0 -1 7.5587 538.851)" gradientUnits="userSpaceOnUse" x1="314.3103" x2="345.674" y1="157.321" y2="211.6441"><stop offset="0" stop-color="#ab2c37"/><stop offset=".1112" stop-color="#b52f3b"/><stop offset=".3022" stop-color="#d13845"/><stop offset=".5486" stop-color="#fd4656"/><stop offset=".5569" stop-color="#ff4757"/><stop offset=".8422" stop-color="#ff7a85"/></linearGradient><linearGradient id="w" gradientTransform="matrix(.9586 -.136 0 -1 7.5587 538.851)" gradientUnits="userSpaceOnUse" x1="378.8036" x2="406.4879" y1="227.5327" y2="275.482"><stop offset="0" stop-color="#ab2c37"/><stop offset=".1011" stop-color="#b52f3b"/><stop offset=".2748" stop-color="#d13845"/><stop offset=".4988" stop-color="#fd4656"/><stop offset=".5063" stop-color="#ff4757"/><stop offset=".8005" stop-color="#ff7a85"/></linearGradient><linearGradient id="x" gradientTransform="matrix(.9586 -.136 0 -1 7.5587 538.851)" gradientUnits="userSpaceOnUse" x1="195.2691" x2="264.8028" y1="156.5889" y2="277.0244"><stop offset=".0547" stop-color="#236568"/><stop offset=".1193" stop-color="#367b7b"/><stop offset=".2799" stop-color="#61ada6"/><stop offset=".4206" stop-color="#81d2c5"/><stop offset=".5344" stop-color="#94e8d8"/><stop offset=".6072" stop-color="#9bf0df"/><stop offset=".8807" stop-color="#aff3e5"/><stop offset=".8992" stop-color="#a4f1e2"/><stop offset=".9259" stop-color="#9df0e0"/><stop offset="1" stop-color="#9bf0df"/></linearGradient><linearGradient id="y" gradientTransform="matrix(.8302 -.6178 0 -1.155 -101.1311 899.4011)" gradientUnits="userSpaceOnUse" x1="408.6588" x2="408.6588" y1="224.1452" y2="402.6967"><stop offset="0" stop-color="#06daae"/><stop offset="1" stop-color="#9bf0df"/></linearGradient><linearGradient id="z" gradientTransform="matrix(.9586 -.136 0 -1 7.5587 538.851)" gradientUnits="userSpaceOnUse" x1="213.6636" x2="213.6636" y1="186.4076" y2="70.1729"><stop offset="0" stop-color="#236568"/><stop offset=".1169" stop-color="#367b7b"/><stop offset=".4076" stop-color="#61ada6"/><stop offset=".6622" stop-color="#81d2c5"/><stop offset=".8683" stop-color="#94e8d8"/><stop offset="1" stop-color="#9bf0df"/></linearGradient><path d="m421.8 19.3-30.4-17.7c-3.5-2.3-8.1-2.2-13.2.7l-274.6 158.6c-10.8 6.2-19.6 22.9-19.6 37.3v279.1c0 8.5 3.1 14.3 7.8 16.3l21.1 12.3 7.3 4.3z" fill="url(#a)"/><path d="m408.4 19.9-274.6 158.6c-10.8 6.2-19.5 22.9-19.5 37.3v279.1c0 14.4 8.7 21 19.5 14.8l274.6-158.5c10.8-6.2 19.5-22.9 19.5-37.3v-279.2c.1-14.4-8.7-21-19.5-14.8z" fill="url(#c)"/><path d="m114.3 269.5 307.5-250.2-30.4-17.7c-3.5-2.3-8.1-2.2-13.2.7l-274.6 158.6c-10.8 6.2-19.6 22.9-19.6 37.3v53.8z" fill="url(#d)"/><path d="m408.4 19.9-274.6 158.6c-10.8 6.2-19.5 22.9-19.5 37.3v53.7l313.7-181.1v-53.7c0-14.4-8.8-21-19.6-14.8z" fill="url(#e)"/><path d="m412.3 46.3-6.6-3.8c-3.1-1.8-7.2-1.6-11.7 1-10 5.8-18 21.2-18 34.5 0 7.5 2.6 12.7 6.6 14.8l6.3 3.7z" fill="url(#f)"/><path d="m418.7 61c0-13.3-8.1-19.4-18-13.6-10 5.8-18 21.2-18 34.5s8.1 19.4 18 13.6 18-21.2 18-34.5z" fill="url(#g)"/><path d="m405.1 68.5 7-12-2.4-1.4c-.9-.6-2.3.3-3.2 2l-4.6 8.9-2.3-2.2-2.5-1.4c-.9-.5-2.3.3-3.2 2-.9 1.8-.9 3.8 0 4.5l4.6 3.5-4.6 8.9c-.9 1.8-.9 3.8 0 4.5.1 0 2.6 1.5 2.6 1.5l5.4-12.3 4.9 3.6 2.3 1.3z" fill="url(#i)"/><path d="m409.7 55.1c-.9-.6-2.3.3-3.2 2l-4.5 8.6 2.3 1.7 7.8-10.9z" fill="url(#j)"/><path d="m397 62.4c-.9-.5-2.3.3-3.2 2-.9 1.8-.9 3.8 0 4.5l4.6 3.5 2.5 1.4-1.4-10z" fill="url(#k)"/><path d="m407.6 70 4.6-8.9c.9-1.8.9-3.8 0-4.5s-2.4.2-3.3 1.9l-4.6 8.9-4.6-3.5c-.9-.7-2.4.2-3.3 1.9s-.9 3.8 0 4.5l4.6 3.5-4.6 8.9c-.9 1.8-.9 3.8 0 4.5.5.3 1.1.3 1.7 0s1.2-1 1.7-1.9l4.6-8.9 4.6 3.5c.5.3 1.1.3 1.7 0s1.2-1 1.7-1.9c.9-1.8.9-3.8 0-4.5z" fill="url(#l)"/><path d="m397.2 74.7h3.2l.5-.9-2.5-1.4z" fill="url(#n)"/><path d="m404.1 76.7 2.5 1.9 2.3 1.3-4.6-3.5z" fill="url(#o)"/><path d="m361.8 75.5-6.6-3.8c-3.1-1.8-7.2-1.6-11.7 1-10 5.8-18 21.2-18 34.5 0 7.5 2.6 12.7 6.6 14.8l6.3 3.7z" fill="url(#p)"/><path d="m368.2 90.2c0-13.3-8.1-19.4-18-13.6s-18 21.2-18 34.5 8.1 19.4 18 13.6c10-5.8 18-21.3 18-34.5z" fill="url(#q)"/><path d="m364.1 94.4-2.4-1.4c-.4-.2-1-.2-1.6.1l-17.9 10.3c-1.3.8-2.4 2.8-2.4 4.5 0 .9.3 1.6.8 1.9l2.4 1.4z" fill="url(#r)"/><path d="m362.6 94.5-17.9 10.3c-1.3.8-2.4 2.8-2.4 4.5s1.1 2.5 2.4 1.8l17.9-10.3c1.3-.8 2.4-2.8 2.4-4.5-.1-1.8-1.1-2.5-2.4-1.8z" fill="url(#s)"/><path d="m377 226.1c-1.7-.9-3.7-1-5.8-.4-5.8 1.6-5.5-20.8-5.5-20.8l-23-10.6c-2.9-1.4-6.8-.7-11 2.4-9.2 6.8-16.7 22.8-16.7 35.6v48.7l-7.5-3.5c-3.1-1.5-7-.5-10.9 2.4-4.3 3.2-8.5 8.6-11.8 15.6-6.5 13.9-6.5 28.6 0 32.8 0 0 35.4 22.9 35.8 23l22.7 10.5 56.3-125.3z" fill="url(#t)"/><path d="m307.6 338.8 34.6 22.4c3.1 2 7.4 1.3 11.8-2s8.7-8.9 11.8-15.6l34.6-74c6.5-13.9 6.5-28.6 0-32.8s-17.1 3.6-23.6 17.5l-5.7 12.2v-48.5c0-12.8-7.5-17.6-16.7-10.8s-16.7 22.8-16.7 35.6v50l-6.7-4.3c-3.3-2.1-7.5-1.2-11.8 2s-8.5 8.6-11.8 15.6c-6.3 13.8-6.3 28.5.2 32.7z" fill="url(#u)"/><path d="m342.3 361.2-34.6-22.4c-6.5-4.2-6.5-18.9 0-32.8 3.3-6.9 7.5-12.4 11.8-15.6 3.6-2.7 7.2-3.7 10.2-2.7l-14.5-6.7-7.5-3.5c-3.1-1.5-7-.5-10.9 2.4-4.3 3.2-8.5 8.6-11.8 15.6-6.5 13.9-6.5 28.6 0 32.8 0 0 35.4 22.9 35.8 23l22.7 10.5c-.5-.2-.9-.4-1.2-.6z" fill="url(#v)"/><path d="m371.2 266.6 5.7-12.2c6.2-13.3 16.2-21 22.7-18l-22.6-10.3c-1.7-.9-3.7-1-5.8-.4z" fill="url(#w)"/><path d="m249 233.9-22.5-10.3c-3.1-1.6-7-.8-11.2 2.3-4.4 3.3-8.7 8.9-11.8 15.6l-34.6 74c-6.5 13.9-6.5 28.6 0 32.8.3.2 23.9 11.1 23.9 11.1l5.3.2v7.7c0 7.3 2.5 12 6.3 13.4l22.2 10.2z" fill="url(#x)"/><path d="m284.5 256.8-34.6-22.4c-3.1-2-7.4-1.3-11.8 2s-8.7 8.9-11.8 15.6l-34.6 74c-6.5 13.9-6.5 28.6 0 32.8s17.1-3.6 23.6-17.5l5.7-12.3v48.7c0 12.8 7.5 17.6 16.7 10.8s16.7-22.8 16.7-35.6v-50l6.7 4.3c3.3 2.1 7.5 1.2 11.8-2s8.5-8.6 11.8-15.6c6.3-13.9 6.3-28.6-.2-32.8z" fill="url(#y)"/><path d="m221 377.6v-48.6l-5.7 12.2c-4.6 9.9-11.3 16.7-17.1 18.3v7.7c0 7.3 2.5 12 6.3 13.4l22.2 10.2c-3.5-1.7-5.7-6.2-5.7-13.2z" fill="url(#z)"/></svg>