<svg enable-background="new 0 0 512 512" height="512" viewBox="0 0 512 512" width="512" xmlns="http://www.w3.org/2000/svg" xmlns:xlink="http://www.w3.org/1999/xlink"><linearGradient id="a" gradientUnits="userSpaceOnUse" x1="143.574" x2="172.811" y1="316.59" y2="265.95"><stop offset=".0319" stop-color="#236568"/><stop offset=".0904" stop-color="#367b7b"/><stop offset=".2358" stop-color="#61ada6"/><stop offset=".3631" stop-color="#81d2c5"/><stop offset=".4662" stop-color="#94e8d8"/><stop offset=".5321" stop-color="#9bf0df"/><stop offset="1" stop-color="#aff3e5"/></linearGradient><linearGradient id="b"><stop offset="0" stop-color="#06daae"/><stop offset="1" stop-color="#9bf0df"/></linearGradient><linearGradient id="c" gradientUnits="userSpaceOnUse" x1="262.481" x2="262.481" xlink:href="#b" y1="528.629" y2="-121.627"/><linearGradient id="d" gradientUnits="userSpaceOnUse" x1="262.481" x2="262.481" xlink:href="#b" y1="470.727" y2="41.1"/><linearGradient id="e" gradientUnits="userSpaceOnUse" x1="266.42" x2="266.42" y1="476.73" y2="181.114"><stop offset=".0319" stop-color="#1a4c4e"/><stop offset="1" stop-color="#1a4c4e" stop-opacity="0"/></linearGradient><linearGradient id="f"><stop offset="0" stop-color="#7662bd"/><stop offset=".324" stop-color="#a996eb"/><stop offset=".6967" stop-color="#a996eb"/><stop offset=".9916" stop-color="#d7d1eb"/></linearGradient><linearGradient id="g" gradientUnits="userSpaceOnUse" x1="272.791" x2="260.563" xlink:href="#f" y1="338.472" y2="359.651"/><linearGradient id="h" gradientUnits="userSpaceOnUse" x1="273.932" x2="319.491" xlink:href="#f" y1="251.014" y2="224.711"/><linearGradient id="i" gradientUnits="userSpaceOnUse" x1="275.074" x2="246.598" y1="285.902" y2="335.223"><stop offset="0" stop-color="#7662bd"/><stop offset=".324" stop-color="#a996eb"/><stop offset=".6743" stop-color="#d7d1eb"/><stop offset="1" stop-color="#7662bd"/></linearGradient><linearGradient id="j" gradientUnits="userSpaceOnUse" x1="239.634" x2="269.609" xlink:href="#f" y1="254.844" y2="202.926"/><linearGradient id="k" gradientUnits="userSpaceOnUse" x1="264.945" x2="278.67" xlink:href="#f" y1="184.929" y2="161.156"/><linearGradient id="l" gradientUnits="userSpaceOnUse" x1="292.187" x2="312.264" xlink:href="#f" y1="186.807" y2="175.216"/><linearGradient id="m" gradientUnits="userSpaceOnUse" x1="282.553" x2="282.553" y1="499.563" y2="203.946"><stop offset="0" stop-color="#dfdaef"/><stop offset="1" stop-color="#fff"/></linearGradient><path d="m463.114 9.846-13.135-7.709c-4.635-3.034-10.828-2.952-17.636.979l-365.647 211.106c-14.359 8.29-25.998 30.53-25.998 49.674v217.741c0 11.31 4.064 19.005 10.349 21.704l.749.48 9.741 5.703z" fill="url(#a)"/><path d="m445.304 297.774-365.646 211.106c-14.358 8.29-25.998-.509-25.998-19.654v-217.741c0-19.144 11.64-41.384 25.998-49.674l365.646-211.106c14.358-8.29 25.998.51 25.998 19.654v217.741c0 19.145-11.64 41.384-25.998 49.674z" fill="url(#c)"/><path d="m72.16 247.629v243.86l380.642-219.764v-243.86z" fill="#2f878a"/><path d="m440.279 200.083v-100.973c-15.915-3.147-29.525-12.846-38.525-27.439l-268.103 154.79c-5.094 35.459-23.991 71.457-48.968 93.291v101.061c15.815 3.129 29.369 12.74 38.37 27.19l268.257-154.878c5.038-35.495 23.932-71.393 48.969-93.042z" fill="url(#d)"/><ellipse cx="262.481" cy="259.793" fill="#2f878a" rx="97.01" ry="54.882" transform="matrix(.392 -.92 .92 .392 -79.344 399.594)"/><path d="m308.236 276.477c0-.018.001-.036.001-.054 0-48.527-53.241-5.139-53.343-27.352.024-6.147 4.208-11.631 10.55-15.293 4.955-2.861 11.726-4.549 18.645-5.056 8.708-.638 16.146-6.509 18.623-14.882.395-1.335.581-2.66.589-3.951.135-8.905-8.35-16.206-17.618-13.744-3.017.801-6.114 1.874-9.252 3.227v-16.529-.001-.112c0-5.111-5.533-8.305-9.959-5.75-5.735 3.311-9.267 9.43-9.267 16.052v.113 17.521c-.918.731-1.806 1.492-2.69 2.255-14.398 11.481-24.092 19.797-26.67 37.016h-.71v18.488c0 47.761 53.247 3.209 53.343 26.005-.025 7.111-4.933 13.782-12.72 18.278-6.132 3.54-14.021 5.232-21.597 4.863-.424-.021-.843-.013-1.262-.008-7.229-.99-13.793-6.95-17.475-.929h-2.822v19.911s.233 2.568.278 2.791c1.276 6.56 7.199 11.739 14.531 11.364 5.66-.29 11.683-1.627 17.793-4.028v18.071c0 5.111 5.533 8.305 9.959 5.75 5.735-3.311 9.267-9.43 9.267-16.052v-18.677c18.216-13.794 31.806-35.519 31.806-59.227.001-.021 0-.04 0-.06z" fill="url(#e)"/><path d="m257.075 340.279v4.883c0 2.646 1.487 4.769 3.532 5.856l-.008.007 15.56 8.942v-31.879c-.001 0-22.735 8.78-19.084 12.191z" fill="url(#g)"/><path d="m300.186 235.491c-7.535-5.048-19.11-2.182-28.69-.337l-4.499 7.722 20.46 12.464 28.05-11.063-15.326-8.802s.003.01.005.016z" fill="url(#h)"/><path d="m280.351 274.797c0 7.131-4.916 13.824-12.722 18.332-6.132 3.54-14.021 5.232-21.597 4.863-9.503-.464-18.098 5.612-20.886 14.709l-.048.156c-2.084 6.799 1.223 13.583 6.939 16.576l-.007.002 15.463 8.924 65.363-57.148c-2.779-3.035-32.505-18.622-32.505-6.414z" fill="url(#i)"/><path d="m227.006 248.732c0 12.627 3.724 18.799 9.202 21.471 0 0-.003.002-.003.002l15.571 9.015 22.794-80.479-17.494-7.655c-18.505 14.732-30.07 36.25-30.07 57.646z" fill="url(#j)"/><path d="m273.099 157.469v.008c-1.953-1.182-4.497-1.382-6.756-.077-5.735 3.311-9.267 9.43-9.267 16.052v17.634l16.264 9.378 11.469-24.217c-.428-1.764 4.474-9.446 4.474-9.446z" fill="url(#k)"/><path d="m296.777 178.363.002.009c-2.406-1.583-5.313-2.445-8.407-2.26l4.193 13.057 11.285 3.801c5.26-3.347 8.75-5.507 8.75-5.507z" fill="url(#l)"/><path d="m292.566 325.448v18.79c0 6.622-3.533 12.741-9.267 16.052-4.426 2.556-9.959-.639-9.959-5.75v-18.184c-6.11 2.401-12.134 3.739-17.793 4.028-9.75.498-17.045-8.816-14.184-18.15l.048-.156c2.788-9.097 11.383-15.172 20.886-14.709 7.576.37 15.465-1.322 21.597-4.863 7.806-4.507 12.722-11.2 12.722-18.332 0-22.938-53.345 21.739-53.345-26.064 0-21.396 11.565-42.914 30.069-57.646v-17.634c0-6.622 3.533-12.741 9.267-16.051 4.426-2.556 9.959.639 9.959 5.75v16.642c3.138-1.353 6.236-2.425 9.253-3.227 10.574-2.809 20.133 7.09 17.029 17.581-2.477 8.372-9.915 14.244-18.623 14.882-6.918.507-13.69 2.196-18.645 5.057-6.36 3.672-10.552 9.176-10.552 15.345 0 22.359 53.345-21.161 53.345 27.413-.001 23.708-13.591 45.432-31.807 59.226z" fill="url(#m)"/><g fill="#2f878a"><ellipse cx="146.105" cy="327.024" rx="29.85" ry="16.887" transform="matrix(.392 -.92 .92 .392 -212.016 333.416)"/><ellipse cx="378.565" cy="192.562" rx="29.85" ry="16.887" transform="matrix(.392 -.92 .92 .392 53.15 465.502)"/></g></svg>