<svg enable-background="new 0 0 512 512" height="512" viewBox="0 0 512 512" width="512" xmlns="http://www.w3.org/2000/svg" xmlns:xlink="http://www.w3.org/1999/xlink"><linearGradient id="a" gradientUnits="userSpaceOnUse" x1="157.568" x2="314.984" y1="405.843" y2="405.843"><stop offset="0" stop-color="#802129"/><stop offset="1" stop-color="#ff4757"/></linearGradient><linearGradient id="b"><stop offset="0" stop-color="#ab2c37"/><stop offset=".0732" stop-color="#b3343f"/><stop offset=".4827" stop-color="#dc5a65"/><stop offset=".8056" stop-color="#f6717c"/><stop offset="1" stop-color="#ff7a85"/></linearGradient><linearGradient id="c" gradientUnits="userSpaceOnUse" x1="158.669" x2="295.949" xlink:href="#b" y1="365.063" y2="365.063"/><linearGradient id="d"><stop offset="0" stop-color="#dfdaef"/><stop offset="1" stop-color="#fff"/></linearGradient><linearGradient id="e" gradientUnits="userSpaceOnUse" x1="125.793" x2="335.489" xlink:href="#d" y1="186.112" y2="186.112"/><linearGradient id="f" gradientUnits="userSpaceOnUse" x1="131.648" x2="327.509" y1="100.168" y2="100.168"><stop offset="0" stop-color="#ff4757"/><stop offset=".4762" stop-color="#ff7a85"/><stop offset="1" stop-color="#ff959d"/></linearGradient><linearGradient id="g" gradientUnits="userSpaceOnUse" x1="143.403" x2="167.13" xlink:href="#b" y1="435.79" y2="394.693"/><linearGradient id="h" gradientUnits="userSpaceOnUse" x1="166.94" x2="166.94" xlink:href="#b" y1="507.594" y2="386.665"/><linearGradient id="i" gradientTransform="matrix(-1 0 0 1 338.953 0)" gradientUnits="userSpaceOnUse" x1="-29.645" x2="-5.917" xlink:href="#b" y1="435.79" y2="394.693"/><linearGradient id="j" gradientTransform="matrix(-1 0 0 1 338.953 0)" gradientUnits="userSpaceOnUse" x1="-6.107" x2="-6.107" xlink:href="#b" y1="483.829" y2="362.9"/><linearGradient id="k" gradientUnits="userSpaceOnUse" x1="324.751" x2="324.751" y1="262.046" y2="348.421"><stop offset=".0319" stop-color="#7662bd"/><stop offset="1" stop-color="#7662bd" stop-opacity="0"/></linearGradient><linearGradient id="l" gradientUnits="userSpaceOnUse" x1="312.863" x2="351.334" y1="303.846" y2="237.212"><stop offset=".0319" stop-color="#a996eb"/><stop offset=".2213" stop-color="#bfb3eb"/><stop offset=".4108" stop-color="#d1c9eb"/><stop offset=".5321" stop-color="#d7d1eb"/><stop offset="1" stop-color="#e9e5f6"/></linearGradient><linearGradient id="m" gradientUnits="userSpaceOnUse" x1="334.849" x2="334.849" xlink:href="#d" y1="335.701" y2="217.05"/><linearGradient id="n" gradientUnits="userSpaceOnUse" x1="334.849" x2="334.849" y1="313.009" y2="218.738"><stop offset="0" stop-color="#7662bd"/><stop offset=".556" stop-color="#a996eb"/><stop offset=".9916" stop-color="#d7d1eb"/></linearGradient><path d="m334.959 365.063-139.499 12.683v35.098l.02-.002c.283 8.985 5.876 17.527 17.005 23.953 25.218 14.559 69.267 12.733 98.386-4.079 15.848-9.15 23.988-20.852 24.069-31.966l.019-.002z" fill="url(#a)"/><path d="m358.966 310.247-187.512 17.048v47.178l.027-.003c.38 12.077 7.899 23.56 22.857 32.197 33.898 19.57 93.107 17.116 132.249-5.482 21.303-12.299 32.245-28.028 32.353-42.968l.026-.003z" fill="url(#c)"/><path d="m351.394 171.199c-10.631-67.544-57.859-171.199-93.285-171.199s-87.28 111.904-86.655 209.937c.147 23.121.18 46.036.165 65.399h-.151l-.014 51.959.04-.004c.561 11.903 8.082 23.198 22.844 31.721 33.898 19.57 93.107 17.116 132.249-5.482 21.452-12.385 32.397-28.248 32.353-43.281l.027-.003c0 .001 3.059-71.503-7.573-139.047z" fill="url(#e)"/><path d="m194.339 187.124c33.898 19.57 93.107 17.116 132.249-5.482 10.095-5.828 17.846-12.428 23.231-19.349-13.1-67.364-57.807-162.293-91.71-162.293-30.287 0-72.574 81.791-83.818 166.78 3.455 7.598 10.101 14.601 20.048 20.344z" fill="url(#f)"/><path d="m197.135 361.23-14.662-8.495-36.795 21.244c-14.601 8.43-23.595 24.008-23.595 40.868v81.492c0 2.993 1.604 5.157 3.741 6.283l-.005.015 14.777 8.531z" fill="url(#g)"/><path d="m197.135 361.23-36.795 21.244c-14.601 8.43-23.595 24.008-23.595 40.868v81.492c0 7.589 10.259 9.959 13.588 3.14l46.802-95.871z" fill="url(#h)"/><path d="m314.865 361.23 14.662-8.495 36.795 21.244c14.601 8.43 23.595 24.008 23.595 40.868v81.492c0 2.993-1.604 5.157-3.741 6.283l.005.015-14.777 8.531z" fill="url(#i)"/><path d="m314.865 361.23 36.795 21.244c14.601 8.43 23.595 24.008 23.595 40.868v81.492c0 7.589-10.259 9.959-13.588 3.14l-46.802-95.871z" fill="url(#j)"/><path d="m292.2 305.097c0 23.969 14.573 34.986 32.55 24.607s32.55-38.224 32.55-62.193-14.573-34.986-32.55-24.607c-17.977 10.378-32.55 38.223-32.55 62.193z" fill="url(#k)"/><path d="m367.399 258.678c0-12.364-3.878-21.281-10.1-25.594l-.001-.001c-.78-.54-1.598-1.007-2.448-1.401l-8.717-4.987c-5.72-3.348-13.198-3.06-21.383 1.666-17.977 10.379-32.55 38.224-32.55 62.193 0 12.869 4.202 22.002 10.876 26.097.347.213 10.033 5.67 10.033 5.67 5.764 3.573 13.383 3.374 21.74-1.45 3.272-1.889 6.431-4.359 9.41-7.277l13.905-19.304c5.714-11.118 9.235-23.832 9.235-35.612z" fill="url(#l)"/><path d="m302.299 296.264c0 23.969 14.573 34.986 32.55 24.607s32.55-38.224 32.55-62.193-14.573-34.986-32.55-24.607-32.55 38.224-32.55 62.193z" fill="url(#m)"/><path d="m312.398 290.433c0 16.532 10.052 24.131 22.451 16.972s22.451-26.364 22.451-42.896-10.052-24.131-22.451-16.972-22.451 26.364-22.451 42.896z" fill="url(#n)"/><g fill="#fff"><path d="m312.398 290.433c0-4.993.918-10.23 2.54-15.306l30.29 22.899c-3.104 3.954-6.634 7.217-10.379 9.379-2.678 1.546-5.246 2.403-7.628 2.63l-13.493-10.2c-.86-2.678-1.33-5.831-1.33-9.402z" opacity=".2"/><path d="m334.849 247.537c2.587-1.493 5.07-2.342 7.383-2.604l13.824 10.451c.805 2.618 1.244 5.677 1.244 9.125 0 7.985-2.345 16.593-6.167 24.166l-31.739-23.994c4.026-7.419 9.466-13.687 15.455-17.144z" opacity=".2"/></g></svg>