<svg enable-background="new 0 0 512 512" height="512" viewBox="0 0 512 512" width="512" xmlns="http://www.w3.org/2000/svg" xmlns:xlink="http://www.w3.org/1999/xlink"><linearGradient id="a"><stop offset="0" stop-color="#0072bc"/><stop offset=".066" stop-color="#1781cb"/><stop offset=".1879" stop-color="#3b98e4"/><stop offset=".2871" stop-color="#51a7f3"/><stop offset=".3505" stop-color="#59acf9"/><stop offset=".9089" stop-color="#79d3fe"/></linearGradient><linearGradient id="b" gradientUnits="userSpaceOnUse" x1="417.322" x2="195.568" xlink:href="#a" y1="412.838" y2="-79.587"/><linearGradient id="c"><stop offset="0" stop-color="#fff" stop-opacity="0"/><stop offset=".5" stop-color="#fff"/><stop offset="1" stop-color="#fff" stop-opacity="0"/></linearGradient><linearGradient id="d" gradientUnits="userSpaceOnUse" x1="190.562" x2="311.96" xlink:href="#c" y1="165.368" y2="95.278"/><linearGradient id="e"><stop offset="0" stop-color="#00395e"/><stop offset="1" stop-color="#00395e" stop-opacity="0"/></linearGradient><linearGradient id="f" gradientUnits="userSpaceOnUse" x1="225.589" x2="361.83" xlink:href="#e" y1="240.936" y2="151.075"/><linearGradient id="g" gradientUnits="userSpaceOnUse" x1="158.595" x2="158.595" y1="463.225" y2="173.446"><stop offset=".0694" stop-color="#ff4757"/><stop offset=".2653" stop-color="#ff5967"/><stop offset=".5466" stop-color="#ff7a85"/><stop offset="1" stop-color="#ff959d"/></linearGradient><linearGradient id="h" gradientUnits="userSpaceOnUse" x1="123.76" x2="244.784" xlink:href="#c" y1="371.444" y2="301.571"/><linearGradient id="i"><stop offset=".0319" stop-color="#5d3645"/><stop offset="1" stop-color="#5d3645" stop-opacity="0"/></linearGradient><linearGradient id="j" gradientUnits="userSpaceOnUse" x1="236.338" x2="236.338" xlink:href="#i" y1="177.039" y2="237.666"/><linearGradient id="k" gradientUnits="userSpaceOnUse" x1="279.726" x2="225.374" xlink:href="#i" y1="298.714" y2="336.76"/><linearGradient id="l" gradientUnits="userSpaceOnUse" x1="30.043" x2="175.47" xlink:href="#i" y1="397.525" y2="313.563"/><linearGradient id="m" gradientUnits="userSpaceOnUse" x1="424.256" x2="202.502" xlink:href="#a" y1="409.716" y2="-82.71"/><linearGradient id="n" gradientUnits="userSpaceOnUse" x1="510.095" x2="381.111" xlink:href="#e" y1="246.49" y2="200.993"/><linearGradient id="o" gradientUnits="userSpaceOnUse" x1="12.906" x2="225.91" xlink:href="#c" y1="270.563" y2="147.585"/><linearGradient id="p" gradientUnits="userSpaceOnUse" x1="323.439" x2="444.838" xlink:href="#c" y1="251.269" y2="181.179"/><path d="m284.186 326.721c-34.72.001-70.741-8.577-100.027-25.486-35.84-20.693-56.395-51.432-56.395-84.334 0-29.911 16.971-56.865 46.565-73.951l98.61-56.932c49.268-28.442 127.797-26.002 182.665 5.675 35.84 20.692 56.396 51.432 56.396 84.335 0 29.911-16.973 56.865-46.566 73.949l-98.61 56.932c-22.97 13.263-52.309 19.812-82.638 19.812zm-58.807-107.599c1.295.912 2.797 1.88 4.525 2.878 28.442 16.421 72.367 16.535 91.173 5.677l93.306-53.872c-1.296-.912-2.797-1.88-4.525-2.878-28.442-16.422-72.367-16.535-91.173-5.675z" fill="url(#b)"/><path d="m203.783 172.995c-5.271 0-10.395-2.734-13.22-7.626-4.211-7.293-1.713-16.619 5.581-20.83l94.987-54.841c7.294-4.212 16.62-1.713 20.83 5.581 4.211 7.293 1.712 16.619-5.581 20.83l-94.987 54.841c-2.401 1.386-5.024 2.045-7.61 2.045z" fill="url(#d)" opacity=".5"/><path d="m302.657 141.682-109.598 63.276 32.32 14.165 93.306-53.87c18.806-10.859 62.731-10.747 91.173 5.675 1.729.998 3.23 1.965 4.526 2.878 12.364-7.138 12.364-24.985 0-32.123-34.569-19.959-77.159-19.959-111.727-.001z" fill="url(#f)"/><path d="m83.936 445.792c-13.765.001-27.069-3.456-39.098-10.401-28.495-16.45-44.838-49.621-44.838-91.006 0-63.359 37.151-132.587 86.417-161.03l98.61-56.932c29.592-17.085 61.419-18.308 87.325-3.351 28.494 16.451 44.838 49.622 44.838 91.007 0 63.358-37.151 132.587-86.417 161.03l-98.61 56.933c-15.852 9.15-32.347 13.75-48.227 13.75zm141.533-237.073-93.306 53.87c-18.808 10.859-40.671 48.954-40.671 81.795 0 1.996.088 3.781.229 5.359l93.306-53.87c18.808-10.859 40.671-48.954 40.671-81.796 0-1.995-.088-3.78-.229-5.358z" fill="url(#g)"/><path d="m136.98 379.07c-5.271 0-10.396-2.735-13.22-7.627-4.211-7.294-1.713-16.619 5.581-20.83l94.613-54.624c7.298-4.21 16.62-1.71 20.83 5.581 4.211 7.294 1.713 16.619-5.581 20.83l-94.613 54.624c-2.402 1.387-5.023 2.046-7.61 2.046z" fill="url(#h)" opacity=".5"/><path d="m225.468 208.72c.141 1.578.229 3.362.229 5.359 0 8.846-1.597 18.071-4.282 27.045l29.846 15.022v-32.534c0-13.238-14.329-21.511-25.793-14.892z" fill="url(#j)"/><path d="m304.592 280.768c-40.729-7.189-102.343 29.507-102.343 29.507s22.093 48.604 29.123 64.469c31.754-18.585 58.403-54.094 73.22-93.976z" fill="url(#k)"/><path d="m91.721 349.743c0 10.82 11.713 17.582 21.083 12.172l118.773-68.574-51.381 5.32z" fill="url(#l)"/><path d="m455.604 91.693c-21.881-12.632-49.859-5.135-62.49 16.744-12.632 21.88-5.136 49.857 16.744 62.49 1.729.998 3.23 1.966 4.525 2.878l-93.306 53.871c-18.806 10.86-62.731 10.745-91.173-5.676-5.521-3.187-11.43-5.089-17.383-5.805l-47.548 27.451c-9.002 20.998-1.091 45.881 19.185 57.589 29.286 16.909 65.307 25.486 100.027 25.486 30.329 0 59.668-6.549 82.638-19.811l98.61-56.932c29.594-17.086 46.567-44.039 46.567-73.95 0-32.903-20.556-63.643-56.396-84.335z" fill="url(#m)"/><path d="m302.657 141.682-109.598 63.276 32.32 14.165 93.306-53.87c18.806-10.859 62.731-10.747 91.173 5.675 1.729.998 3.23 1.965 4.526 2.878 12.364-7.138 12.364-24.985 0-32.123-34.569-19.959-77.159-19.959-111.727-.001z" fill="url(#n)"/><path d="m35.503 294.468c-1.887 0-3.802-.352-5.659-1.096-7.806-3.128-11.612-11.972-8.5-19.785.782-1.961 19.612-48.383 61.218-79.64 45.004-33.808 114.354-63.46 117.285-64.706 7.749-3.295 16.701.316 19.997 8.065 3.295 7.75-.316 16.704-8.064 20-.685.291-68.897 29.47-110.901 61.024-34.579 25.979-51.053 66.169-51.215 66.572-2.394 5.946-8.118 9.566-14.161 9.566z" fill="url(#o)" opacity=".5"/><path d="m336.659 258.895c-5.272 0-10.396-2.735-13.221-7.626-4.211-7.294-1.713-16.619 5.581-20.83l94.988-54.841c7.294-4.212 16.62-1.711 20.83 5.581 4.211 7.294 1.712 16.619-5.581 20.83l-94.988 54.841c-2.4 1.386-5.023 2.045-7.609 2.045z" fill="url(#p)" opacity=".5"/></svg>