<svg enable-background="new 0 0 512 512" height="512" viewBox="0 0 512 512" width="512" xmlns="http://www.w3.org/2000/svg" xmlns:xlink="http://www.w3.org/1999/xlink"><linearGradient id="a"><stop offset="0" stop-color="#b096ed"/><stop offset=".0014" stop-color="#b096ed"/><stop offset=".299" stop-color="#cdbcf3"/><stop offset=".5742" stop-color="#e2d7f7"/><stop offset=".8165" stop-color="#efe8f9"/><stop offset="1" stop-color="#f3eefa"/></linearGradient><linearGradient id="b" gradientUnits="userSpaceOnUse" x1="182.243" x2="244.108" xlink:href="#a" y1="251.159" y2="144.006"/><linearGradient id="c" gradientUnits="userSpaceOnUse" x1="280.44" x2="157.6" y1="-28.658" y2="161.924"><stop offset="0" stop-color="#b096ed"/><stop offset=".0014" stop-color="#b096ed" stop-opacity=".999"/><stop offset=".299" stop-color="#cdbcf3" stop-opacity=".701"/><stop offset=".5742" stop-color="#e2d7f7" stop-opacity=".426"/><stop offset=".8165" stop-color="#efe8f9" stop-opacity=".184"/><stop offset="1" stop-color="#f3eefa" stop-opacity="0"/></linearGradient><linearGradient id="d" gradientUnits="userSpaceOnUse" x1="229.908" x2="445.884" xlink:href="#a" y1="98.565" y2="-26.129"/><linearGradient id="e" gradientUnits="userSpaceOnUse" x1="346.162" x2="267.365" xlink:href="#a" y1="695.96" y2="96.595"/><linearGradient id="f" gradientUnits="userSpaceOnUse" x1="315.762" x2="264.106" y1="478.938" y2="86.013"><stop offset="0" stop-color="#00878a"/><stop offset=".0603" stop-color="#00908e"/><stop offset=".314" stop-color="#00b09b"/><stop offset=".5586" stop-color="#00c7a4"/><stop offset=".7878" stop-color="#00d5aa"/><stop offset=".986" stop-color="#00daac"/></linearGradient><linearGradient id="g" gradientTransform="matrix(.866 -.5 0 1.155 55.275 146.461)" gradientUnits="userSpaceOnUse" x1="271.518" x2="271.518" y1="341.01" y2="178.769"><stop offset="0" stop-color="#e1daef"/><stop offset="1" stop-color="#fff"/></linearGradient><path d="m433.197 30.848-52.151-30.11-.002.004c-1.728-1.157-4.107-1.007-6.672.765-42.784 29.563-85.672 41.826-123.034 35.18l-14.747-2.623c-4.093-.728-9.102 2.164-13.194 7.618l-14.747 19.652c-37.362 49.788-80.249 87.047-123.034 106.887-5.072 2.352-9.427 10.2-9.427 16.986v145.231c0 69.841 23.399 119.54 60.771 140.494l-.001.001 49.213 28.355z" fill="url(#b)"/><path d="m205.734 183.219 82.869-119.159-52.011-29.995c-4.093-.728-9.102 2.164-13.194 7.618l-14.748 19.651c-37.362 49.788-80.249 87.047-123.034 106.887l52.011 29.995z" fill="url(#c)"/><path d="m382.166 70.567c14.899-4.516 51.031-39.719 51.031-39.719l-52.151-30.11-.002.004c-1.728-1.157-4.107-1.007-6.672.765-42.784 29.563-85.672 41.826-123.034 35.18l-14.747-2.623 52.011 29.995c.001.001 39.919 22.767 93.564 6.508z" fill="url(#d)"/><path d="m303.349 66.683-14.747-2.623c-4.093-.728-9.102 2.164-13.194 7.618l-14.747 19.651c-37.362 49.788-80.249 87.047-123.034 106.887-5.072 2.352-9.427 10.2-9.427 16.987v145.231c0 117.5 66.226 177.997 153.805 140.499 87.579-63.629 153.805-200.597 153.805-318.097v-145.232c0-6.787-4.355-9.606-9.427-6.101-42.784 29.563-85.671 41.826-123.034 35.18z" fill="url(#e)"/><path d="m413.004 66.438v116.397c0 53.459-14.84 113.593-41.786 169.323-26.329 54.453-61.96 100.076-100.525 128.785-13.45 5.476-26.302 8.251-38.235 8.251-23.244 0-42.302-10.366-56.644-30.811-16.228-23.133-24.806-57.003-24.806-97.948v-143.324c45.061-21.862 89.204-60.533 127.896-112.093l12.922-17.22 7.529 1.339c7.883 1.402 16.069 2.113 24.33 2.113 28.564 0 59.006-8.507 89.319-24.812z" fill="url(#f)"/><path d="m343.81 231.639-3.429 1.98v-8.786c0-36.739-22.417-53.686-49.971-37.777s-49.971 58.74-49.971 95.479v8.786l-3.429 1.98c-5.023 2.9-9.094 10.68-9.094 17.377v88.206c0 6.697 4.072 9.775 9.094 6.875l106.801-61.662c5.023-2.9 9.094-10.679 9.094-17.376v-88.206c-.001-6.698-4.072-9.776-9.095-6.876zm-46.492 90.762v12.213c0 5.088-3.093 10.997-6.908 13.2s-6.908-.135-6.908-5.223v-12.214c-4.616-.628-7.759-5.3-7.759-12.769 0-10.801 6.566-23.348 14.667-28.024 8.1-4.677 14.667.288 14.667 11.088-.001 7.469-3.143 15.769-7.759 21.729zm25.171-78.453-64.16 37.043v-8.786c0-23.585 14.391-51.082 32.08-61.295s32.08.667 32.08 24.252z" fill="url(#g)"/></svg>