<svg enable-background="new 0 0 512 512" height="512" viewBox="0 0 512 512" width="512" xmlns="http://www.w3.org/2000/svg" xmlns:xlink="http://www.w3.org/1999/xlink"><linearGradient id="a"><stop offset="0" stop-color="#ff7a85"/><stop offset="1" stop-color="#ffbfc4"/></linearGradient><linearGradient id="b" gradientUnits="userSpaceOnUse" x1="237.495" x2="293.859" xlink:href="#a" y1="442.229" y2="442.229"/><linearGradient id="c" gradientUnits="userSpaceOnUse" x1="99.748" x2="156.112" xlink:href="#a" y1="377.933" y2="377.933"/><linearGradient id="d"><stop offset=".0319" stop-color="#ab2c37"/><stop offset="1" stop-color="#ab2c37" stop-opacity="0"/></linearGradient><linearGradient id="e" gradientUnits="userSpaceOnUse" x1="144.677" x2="121.017" xlink:href="#d" y1="350.699" y2="418.97"/><linearGradient id="f" gradientUnits="userSpaceOnUse" x1="279.401" x2="279.401" xlink:href="#d" y1="432.698" y2="489.764"/><linearGradient id="g" gradientUnits="userSpaceOnUse" x1="348.201" x2="404.566" xlink:href="#a" y1="396.183" y2="396.183"/><linearGradient id="h" gradientUnits="userSpaceOnUse" x1="402.53" x2="417.224" xlink:href="#d" y1="410.08" y2="448.15"/><linearGradient id="i" gradientUnits="userSpaceOnUse" x1="197.272" x2="285.682" xlink:href="#a" y1="403.102" y2="267.997"/><linearGradient id="j" gradientUnits="userSpaceOnUse" x1="401.922" x2="438.079" xlink:href="#a" y1="375.233" y2="312.609"/><linearGradient id="k"><stop offset="0" stop-color="#e37a34"/><stop offset="1" stop-color="#ffc538"/></linearGradient><linearGradient id="l" gradientTransform="matrix(-1 0 0 1 715.347 0)" gradientUnits="userSpaceOnUse" x1="381.192" x2="418.477" xlink:href="#k" y1="122.622" y2="58.042"/><linearGradient id="m"><stop offset="0" stop-color="#f7e041"/><stop offset="1" stop-color="#fcf3b3"/></linearGradient><linearGradient id="n" gradientTransform="matrix(-1 0 0 1 715.347 0)" gradientUnits="userSpaceOnUse" x1="434.25" x2="434.25" xlink:href="#m" y1="150.067" y2="-89.362"/><linearGradient id="o"><stop offset="0" stop-color="#fff"/><stop offset="1" stop-color="#fff" stop-opacity="0"/></linearGradient><linearGradient id="p" gradientTransform="matrix(-1 0 0 1 715.347 0)" gradientUnits="userSpaceOnUse" x1="501.449" x2="436.573" xlink:href="#o" y1="138.687" y2="101.231"/><linearGradient id="q" gradientTransform="matrix(-1 0 0 1 715.347 0)" gradientUnits="userSpaceOnUse" x1="474.253" x2="366.576" xlink:href="#o" y1="120.901" y2="58.733"/><linearGradient id="r" gradientTransform="matrix(-1 0 0 1 715.347 0)" gradientUnits="userSpaceOnUse" x1="434.25" x2="434.25" y1="123.544" y2="-32.472"><stop offset="0" stop-color="#ffc538"/><stop offset="1" stop-color="#f7e041"/></linearGradient><linearGradient id="s" gradientTransform="matrix(-1 0 0 1 715.347 0)" gradientUnits="userSpaceOnUse" x1="418.629" x2="474.124" xlink:href="#k" y1="154.488" y2="58.37"/><linearGradient id="t" gradientTransform="matrix(-1 0 0 1 715.347 0)" gradientUnits="userSpaceOnUse" x1="388.123" x2="471.628" xlink:href="#k" y1="93.272" y2="93.272"/><linearGradient id="u" gradientTransform="matrix(-1 0 0 1 715.347 0)" gradientUnits="userSpaceOnUse" x1="433.25" x2="433.25" xlink:href="#m" y1="131.754" y2="-26.744"/><linearGradient id="v" gradientTransform="matrix(-1 0 0 1 715.347 0)" gradientUnits="userSpaceOnUse" x1="479.143" x2="440.169" xlink:href="#o" y1="125.901" y2="103.399"/><linearGradient id="w" gradientTransform="matrix(-1 0 0 1 715.347 0)" gradientUnits="userSpaceOnUse" x1="466.749" x2="378.865" xlink:href="#o" y1="116.516" y2="65.776"/><path d="m128.444 188.692c-.565 0-1.139-.073-1.71-.226-1.13-.302-18.178-5.02-32.902-17.505-7.28 3.149-15.001 3.891-22.533 1.999-19.319-4.85-23.511-23.746-23.029-33.06.188-3.641 3.287-6.447 6.935-6.251 3.641.188 6.44 3.293 6.251 6.935-.065 1.618-.267 16.225 13.057 19.57 3.282.824 6.376.804 9.227.242-4.46-5.875-8.059-12.84-9.97-21.05-5.293-22.748 5.115-34.46 16.621-37.836 13.635-4.002 28.73 2.684 32.973 14.593 4.186 11.753-1.438 29.822-13.373 42.964-1.411 1.554-2.872 2.993-4.374 4.313 11.745 8.753 24.325 12.275 24.54 12.334 3.514.954 5.598 4.575 4.65 8.09-.791 2.946-3.453 4.888-6.363 4.888zm-30.125-75.096c-1.427 0-2.852.186-4.209.583-7.629 2.238-10.285 10.114-7.477 22.174 1.644 7.067 5.038 13.016 9.242 17.978 1.732-1.419 3.193-2.875 4.343-4.141 9.139-10.064 12.916-23.46 10.709-29.657-1.463-4.106-7.04-6.937-12.608-6.937z" fill="#bf7076"/><path d="m312.494 490.002c-.001-.101.004-.203 0-.303l8.572-117.241-83.331 7.642 8.573 115.564h.002c.015 4.375 2.663 8.551 8.07 11.672 11.968 6.909 32.872 6.043 46.691-1.936 7.545-4.356 11.408-9.93 11.422-15.219v-.179z" fill="url(#b)"/><path d="m174.747 425.707c-.001-.101.004-.203 0-.303l8.572-117.241-83.331 7.642 8.573 115.564h.002c.015 4.375 2.663 8.551 8.07 11.672 11.968 6.91 32.872 6.043 46.691-1.935 7.545-4.356 11.408-9.93 11.422-15.219v-.18z" fill="url(#c)"/><path d="m106.365 401.758c12.588 15.941 28.345 29.813 47.007 40.588l3.33 1.835c2.326-.872 4.56-1.884 6.623-3.076 7.545-4.356 11.408-9.931 11.422-15.219v-.178c-.001-.101.004-.202 0-.304l8.572-117.241-83.331 7.642z" fill="url(#e)"/><path d="m311.379 495.124c.735-1.645 1.11-3.308 1.114-4.943v-.179c-.001-.1.004-.202 0-.303l8.572-117.241-83.331 7.642 8.091 109.064c15.579 4.699 31.537 6.985 47.377 6.985 6.088-.001 12.154-.359 18.177-1.025z" fill="url(#f)"/><path d="m423.2 443.956c-.001-.101.004-.203 0-.303l8.572-117.241-83.331 7.642 8.573 115.564h.002c.015 4.375 2.663 8.551 8.07 11.672 11.968 6.91 32.872 6.043 46.691-1.936 7.544-4.356 11.408-9.93 11.422-15.219v-.179z" fill="url(#g)"/><path d="m357.015 449.617h.002c.015 4.375 2.663 8.551 8.07 11.673 6.209 3.585 14.824 5.058 23.607 4.549 13.192-9.319 25.154-20.689 35.369-33.969l7.711-105.458-83.331 7.642z" fill="url(#h)"/><path d="m298.537 472.93c-28.003 0-56.376-7.132-82.369-22.139l-57.462-31.663c-78.941-45.577-105.988-146.518-60.412-225.459 45.577-78.942 146.519-105.987 225.458-60.411l57.462 31.663c78.941 45.577 105.988 146.517 60.411 225.458-30.569 52.947-86.051 82.551-143.088 82.551z" fill="url(#i)"/><ellipse cx="352.303" cy="332.846" fill="#43386b" rx="23.265" ry="13.162" transform="matrix(.392 -.92 .92 .392 -91.912 526.694)"/><ellipse cx="417.563" cy="288.798" fill="#43386b" rx="23.265" ry="13.162" transform="matrix(.392 -.92 .92 .392 -11.673 559.942)"/><path d="m435.255 339.958-9.321-5.31c-4.788-2.728-11.019-2.453-17.831 1.48-15.108 8.723-27.355 32.123-27.355 52.267 0 10.619 3.405 18.211 8.836 21.741l-.001.002 10.44 5.966c4.735 2.494 35.232-76.146 35.232-76.146z" fill="url(#j)"/><ellipse cx="417.462" cy="377.933" fill="#ffcdd1" rx="41.995" ry="23.758" transform="matrix(.392 -.92 .92 .392 -93.754 614.083)"/><g fill="#864247"><path d="m407.032 367.834c3.983-2.3 8.963.575 8.963 5.175v20.47c0 3.914-2.088 7.53-5.477 9.487-3.983 2.3-8.963-.575-8.963-5.175v-20.47c0-3.913 2.088-7.53 5.477-9.487z"/><path d="m429.504 354.892c3.983-2.3 8.963.575 8.963 5.175v20.47c0 3.914-2.088 7.53-5.477 9.487-3.983 2.3-8.963-.575-8.963-5.175v-20.47c0-3.914 2.088-7.53 5.477-9.487z"/></g><path d="m325.412 211.048c-3.066 0-6.145-1.062-8.643-3.227-.43-.37-29.641-25.19-79.262-40.731-6.959-2.18-10.833-9.588-8.654-16.546 2.18-6.958 9.589-10.831 16.547-8.654 55.338 17.332 87.35 44.831 88.685 45.994 5.501 4.786 6.081 13.127 1.294 18.628-2.611 3-6.279 4.536-9.967 4.536z" fill="#864247"/><path d="m381.688 208.766s23.437-46.408 43.915-36.537c20.477 9.872-31.431 43.668-31.431 43.668z" fill="#ff959d"/><path d="m394.171 215.897s12.806-45.485 31.431-43.668c18.626 1.817 6.199 51.284 6.199 51.284s-15.89-8.193-37.63-7.616z" fill="#ffcdd1"/><path d="m297.171 276.302 7.271-66.039s-13.417 3.266-18.661 23.751c-5.243 20.485-.056 38.337-.056 38.337z" fill="#ff959d"/><path d="m329.463 240.412s-11.297 5.953-19.313 16.057c-8.015 10.105-12.979 19.832-12.979 19.832s-6.485-32.078-3.539-46.743 9.589-21.218 17.264-20.094c10.92 1.601 18.567 30.948 18.567 30.948z" fill="#ffcdd1"/><path d="m243.387 17.349 23.455-13.532c10.148-5.782 23.352-5.198 37.79 3.138 32.018 18.486 57.974 68.08 57.974 110.771 0 22.505-7.216 38.595-18.728 46.075l.002.004-25.827 14.922c-10.032 5.288-74.666-161.378-74.666-161.378z" fill="url(#l)"/><path d="m223.122 64.361c0-42.691 25.956-62.313 57.974-43.828 32.018 18.486 57.974 68.079 57.974 110.771s-25.956 62.313-57.974 43.828-57.974-68.08-57.974-110.771z" fill="url(#n)"/><path d="m223.122 64.361c0-13.452 2.579-24.611 7.111-33.011l78.701 150.372c-8.263 1.272-17.748-.766-27.837-6.591-4.238-2.447-8.369-5.444-12.349-8.893l-44.303-84.648c-.864-5.805-1.323-11.578-1.323-17.229z" fill="url(#p)"/><path d="m281.097 20.534c2.56 1.478 5.081 3.157 7.554 5.014l49.931 95.402c.322 3.483.49 6.941.49 10.354 0 22.432-7.169 38.49-18.616 46.001l-81.92-156.524c10.589-9.148 25.737-9.961 42.561-.247z" fill="url(#q)"/><path d="m234.97 71.201c0-33.967 20.652-49.579 46.127-34.871s46.127 54.167 46.127 88.134-20.652 49.579-46.127 34.871c-25.476-14.708-46.127-54.167-46.127-88.134z" fill="url(#r)"/><path d="m255.77 31.805c-7.217 6.688-11.601 18.435-11.601 34.081 0 33.967 20.652 73.426 46.127 88.134 9.355 5.401 18.057 6.709 25.327 4.525-8.451 7.831-20.785 8.723-34.526.79-25.475-14.708-46.127-54.167-46.127-88.134 0-21.494 8.272-35.634 20.8-39.396z" fill="url(#s)"/><path d="m243.719 75.018c0-15.551 5.204-26.476 13.416-31.12l-.001-.001 15.527-8.958c.939-.535 1.922-.979 2.938-1.347 1.803.755 3.637 1.663 5.498 2.738 25.475 14.708 46.127 54.167 46.127 88.134 0 5.444-.533 10.413-1.529 14.864-.654.553-1.333 1.06-2.037 1.518l.001.002-17.097 9.878c-6.642 3.501-15.167 2.988-24.465-2.38-21.196-12.237-38.378-45.067-38.378-73.328z" fill="url(#t)"/><path d="m243.719 75.018c0-28.261 17.182-41.25 38.378-29.013s38.378 45.068 38.378 73.328-17.182 41.25-38.378 29.013-38.378-45.067-38.378-73.328z" fill="url(#u)"/><path d="m282.097 148.346c-21.196-12.237-38.378-45.067-38.378-73.328 0-5.406.631-10.251 1.796-14.47l48.212 92.118c-3.669-.564-7.576-1.979-11.63-4.32z" fill="url(#v)"/><path d="m282.097 46.005c21.196 12.237 38.378 45.068 38.378 73.328 0 15.872-5.42 26.926-13.927 31.401l-54.032-103.239c7.039-7.278 17.677-8.363 29.581-1.49z" fill="url(#w)"/></svg>