<svg enable-background="new 0 0 138 46" viewBox="0 0 138 46" xmlns="http://www.w3.org/2000/svg"><g fill="#8c8bc3"><path d="m42.88 29.14c-.12-.1-.25-.17-.39-.23-.14.06-.27.13-.39.23-.79.64-.79 1.84 0 2.49.12.1.25.17.39.23.14-.06.27-.13.39-.23.78-.65.78-1.85 0-2.49z"/><path d="m24.55 26.01c-.1.09-.19.19-.26.31-.02.04-.05.08-.07.12 0 .01.01.01.01.02.39.73 1.31 1.05 2.07.7.34-.16.6-.41.76-.72-.46-.91-1.69-1.17-2.51-.43z"/><path d="m38.93 13.41c-.01-.19-.05-.37-.13-.54-.11-.25-.27-.45-.46-.61-.23-.19-.52-.31-.83-.35-.11-.01-.21-.01-.32 0-.16.19-.27.42-.33.67-.2.9.41 1.78 1.31 1.92.13.02.26.02.39.01.25-.29.39-.67.37-1.1z"/><path d="m37.07 20.38c-1.55-.79-3.4-.07-4.05 1.48.26.63.74 1.16 1.37 1.48 1.55.79 3.4.07 4.05-1.48-.26-.62-.74-1.16-1.37-1.48z"/><path d="m51.85 15.06c.28.06.56.04.83-.04.24-.08.47-.22.66-.41.11-.11.2-.23.27-.37-.08-.14-.17-.28-.29-.4-.14-.14-.3-.25-.48-.32-.51-.22-1.07-.17-1.52.12-.23.15-.42.36-.54.6.21.43.6.73 1.07.82z"/><path d="m37.63 3.18c-.2-.45-.54-.81-.98-1.03-.48.24-.85.65-1.04 1.16-.16.44-.16.93-.01 1.37.19.54.57.95 1.04 1.18 1-.48 1.44-1.67.99-2.68z"/><path d="m19.5 13.53c-.07-.02-.15-.03-.22-.03-.14 0-.29.04-.42.11-.13.07-.23.18-.31.31.11.19.29.33.51.39.25.07.51.02.71-.14.09-.07.17-.16.22-.25-.1-.2-.28-.33-.49-.39z"/><path d="m20.69 31.74c-.2-.36-.51-.62-.87-.75-.13-.05-.27-.08-.41-.09-.24-.02-.47.02-.69.1-.01.04-.03.08-.04.11-.15.54-.03 1.08.32 1.49.35.41.87.62 1.43.55.12-.01.24-.05.35-.09.09-.24.12-.51.09-.79-.02-.18-.09-.37-.18-.53z"/><path d="m36.82 41.91c-.34-.21-.71-.31-1.08-.31-.78 0-1.55.45-1.9 1.23.21.48.6.87 1.11 1.08.32.13.68.18 1.03.14.67-.08 1.24-.47 1.56-1.05.03-.05.06-.11.08-.17-.16-.36-.43-.69-.8-.92z"/><path d="m52.9 32.08c-.07-.13-.18-.23-.31-.31-.19.11-.33.29-.39.51-.07.25-.02.51.14.72.07.09.16.17.25.22.19-.11.33-.29.39-.51.07-.21.04-.43-.08-.63z"/></g><path d="m53.68 16.13c.18-.1.35-.22.51-.36.4-.35.7-.8.86-1.3.3-.9.18-1.85-.33-2.63-.44-.68-1.12-1.15-1.92-1.31-.54-.11-1.07-.08-1.56.08-.24.08-.47.19-.68.32-.42.26-.95.26-1.38.01l-9-5.2c-.6-.35-.96-.99-.95-1.68.01-.52-.1-1.04-.32-1.52-.36-.78-.99-1.4-1.78-1.75-.91-.4-1.91-.4-2.81 0-.86.38-1.52 1.06-1.86 1.93-.17.43-.25.87-.24 1.32.01.7-.34 1.35-.95 1.7l-9.61 5.55c-.46.27-1.02.31-1.51.11-.09-.04-.19-.07-.29-.1-.59-.16-1.2-.08-1.72.23-.61.35-1.02.96-1.12 1.68-.05.38 0 .76.14 1.12.18.44.47.8.84 1.05.36.24.56.65.56 1.08v12.22c0 .48-.27.91-.7 1.14-.31.16-.59.38-.84.65-.37.4-.62.9-.72 1.43-.18.93.06 1.86.67 2.57.36.42.81.72 1.29.89.55.2 1.16.23 1.73.09.24-.06.63-.28.95-.48.34-.22.78-.23 1.13-.03l9.18 5.3c.61.35.97 1.01.96 1.71 0 .43.07.86.23 1.29.24.63.65 1.18 1.2 1.58.62.45 1.34.68 2.07.68.41 0 .83-.07 1.23-.22.61-.23 1.15-.62 1.54-1.14.51-.66.74-1.43.73-2.19-.01-.71.37-1.37.99-1.72l9.57-5.52c.46-.27 1.03-.32 1.52-.11.09.04.19.07.28.1.2.05.39.08.59.08.52 0 1.04-.18 1.46-.54.25-.2.44-.46.58-.75.33-.7.29-1.47-.08-2.12-.13-.22-.29-.42-.48-.58-.48-.42-.77-1.02-.77-1.66v-11.61c.03-.57.32-1.11.81-1.39zm-15.77-9.37c.3-.24.7-.26 1.02-.08l9.65 5.59c.18.1.1.37-.11.37l-6.03-.25c-.55-.02-1.06-.34-1.31-.84-.43-.83-1.23-1.45-2.22-1.61h-.01c-.41-.06-.74-.36-.86-.75l-.44-1.47c-.1-.35.02-.74.31-.96zm-1.04 5.82c.17-.8.94-1.34 1.75-1.25.31.04.59.16.83.35.2.16.36.37.46.61.08.17.12.36.13.54.05 1.05-.87 1.83-1.85 1.67-.91-.14-1.52-1.02-1.32-1.92zm1.71 11.16c-.48 1.82-2.5 2.73-4.18 1.88-1.22-.62-1.86-2.03-1.51-3.36.48-1.82 2.5-2.73 4.18-1.88 1.22.62 1.86 2.03 1.51 3.36zm-4.8-20.43c.23-.63.73-1.11 1.39-1.3.34-.1.7-.11 1.05-.02.64.16 1.16.59 1.42 1.18.46 1.05-.02 2.27-1.07 2.73-1.1.48-2.39-.07-2.79-1.22-.16-.44-.16-.93 0-1.37zm-12.49 11.25c.15-.28.24-.59.26-.91.03-.4.25-.77.6-.97l10.22-5.9c.41-.24.92-.21 1.31.07.51.37 1.11.59 1.73.65.39.04.73.31.84.68l.45 1.48c.11.36 0 .75-.28 1-.5.45-.86 1.06-.97 1.78-.13.81.07 1.59.51 2.21.07.1.23.26.41.42.38.34.53.87.4 1.36l-.33 1.23c-.15.54-.61.94-1.17 1-1.58.18-3.01 1.21-3.61 2.79-.14.37-.23.75-.26 1.13-.05.53-.44.96-.95 1.1l-1.28.34c-.46.12-.95-.03-1.27-.38-.51-.55-1.2-.89-1.93-.96-.69-.07-1.3-.5-1.62-1.11l-3.04-5.91c-.2-.34-.2-.76-.02-1.1zm5.02 12.6c-.76.34-1.68.03-2.07-.7-.27-.5-.26-1.11.06-1.62.07-.11.16-.22.26-.31.82-.75 2.05-.48 2.52.44.41.81.07 1.81-.77 2.19zm-7.75-13.24c-.11-.19-.14-.42-.08-.63.06-.22.2-.4.39-.51.13-.07.27-.11.42-.11.07 0 .15.01.22.03.25.07.45.24.55.48.15.35.04.77-.27 1-.21.15-.47.2-.71.14-.23-.07-.41-.21-.52-.4zm1.48 19.99c-.17.09-.36.15-.55.18-.56.07-1.08-.14-1.43-.55-.35-.41-.47-.95-.32-1.49.05-.19.15-.38.27-.53.34-.44.86-.66 1.39-.62.14.01.28.04.41.09.36.13.67.39.87.75.09.17.15.35.18.54.1.67-.22 1.3-.82 1.63zm1.05-4.38c-.17.19-.45.25-.68.15h-.01c-.24-.09-.4-.32-.4-.58v-12.01c0-.2.27-.27.36-.09l2.69 5.23c.32.62.32 1.36-.03 1.96-.25.43-.39.92-.41 1.42-.01.3.04.74.16 1.12.14.46.04.96-.29 1.31zm16.45 13.48c-.32.58-.89.96-1.56 1.05-.35.04-.7 0-1.03-.14-.73-.3-1.21-.96-1.29-1.75-.03-.28.01-.57.1-.83.31-.9 1.13-1.41 1.97-1.41.37 0 .74.1 1.08.31.95.56 1.27 1.8.73 2.77zm.12-5.38c-.37.59-1.04.91-1.73.87-.7-.04-1.4.13-2 .49-.59.35-1.33.38-1.92.03l-9.06-5.23c-.38-.22-.61-.64-.55-1.07.06-.46-.06-.9-.23-1.26-.18-.4-.1-.87.2-1.19l1.17-1.27c.33-.35.83-.51 1.3-.38.71.2 1.5.14 2.2-.23.84-.43 1.39-1.2 1.57-2.05.1-.46.46-.82.91-.94l1.29-.35c.5-.14 1.05.05 1.35.47.48.68 1.17 1.24 2.01 1.56 1.05.4 2.16.37 3.13-.01.65-.25 1.39-.09 1.89.4l.5.5c.44.44.62 1.07.47 1.68-.17.69-.09 1.44.23 2.09.28.55.23 1.21-.1 1.73zm11.46-4.2-9.09 5.25c-.46.26-.97-.25-.7-.7l2.3-3.89c.27-.45.77-.71 1.3-.68.83.05 1.68-.25 2.32-.88l.01-.01c.45-.45 1.1-.62 1.71-.45.65.18 1.45.4 2.06.58.36.11.42.6.09.78zm-7.02-4.29c.58-.48 1.44-.48 2.02 0 .79.64.79 1.84 0 2.49-.58.48-1.44.48-2.02 0-.79-.65-.79-1.85 0-2.49zm8.7 1.53s-.01.01-.01.01c-.44.37-1.01.52-1.57.39l-1.96-.46c-.59-.14-1.08-.57-1.26-1.15-.14-.45-.39-.88-.75-1.23-.78-.78-1.88-1.04-2.88-.8-.6.15-1.23-.04-1.67-.47l-.48-.48c-.5-.5-.66-1.25-.41-1.92v-.01c.71-1.88.04-3.95-1.51-5.08-.45-.33-.65-.9-.51-1.44l.31-1.17c.13-.48.51-.87.99-.98.78-.18 1.46-.66 1.88-1.34.3-.47.82-.76 1.38-.73l5.98.25c.47.02.87.31 1.07.73.28.6.75 1.1 1.35 1.41.41.21.68.63.68 1.1v12c.03.53-.21 1.03-.63 1.37zm2.1 1.41c.11.19.14.42.08.63-.07.25-.24.45-.48.55-.35.15-.78.04-1-.27-.15-.21-.2-.47-.14-.72.06-.22.2-.4.39-.51.13-.07.27-.11.42-.11.07 0 .15.01.22.03.22.07.4.21.51.4zm-.23-17.06c-.26.09-.55.1-.83.04-.52-.11-.96-.47-1.16-.99-.07-.19-.11-.39-.11-.59.01-.56.28-1.04.73-1.34.45-.29 1.01-.34 1.52-.12.18.08.34.19.48.32.48.48.61 1.18.34 1.8-.07.17-.18.33-.31.46-.19.21-.42.34-.66.42z" fill="#7a5ca6"/><path d="m58.55 20.68 1.38-1.54c1.01 1.39 2.23 2.03 3.72 2.03 1.25 0 2.18-.46 2.18-1.69 0-.81-.43-1.36-1.73-1.59l-1.85-.34c-1.93-.35-3.14-1.4-3.14-3.3 0-2.3 1.75-3.44 4.1-3.44 1.67 0 3.22.58 4.35 1.78l-1.24 1.55c-.87-.99-2.07-1.51-3.23-1.51-1.04 0-1.81.42-1.81 1.41 0 .68.36 1.2 1.49 1.4l1.84.34c2.04.37 3.44 1.43 3.44 3.51 0 2.36-1.78 3.82-4.53 3.82-2.09.01-3.95-.88-4.97-2.43z" fill="#7a5ca6"/><path d="m71.36 16.99c0-3.94 2.14-6.17 5.61-6.17 3.44 0 5.62 2.23 5.62 6.17s-2.18 6.17-5.62 6.17c-3.47 0-5.61-2.23-5.61-6.17zm8.99 0c0-2.58-1.21-4.21-3.38-4.21-2.2 0-3.38 1.63-3.38 4.21 0 2.59 1.18 4.22 3.38 4.22 2.17 0 3.38-1.63 3.38-4.22z" fill="#7a5ca6"/><path d="m86.64 11h2.26v10.05h5.73v1.93h-7.99z" fill="#7a5ca6"/><path d="m98.26 11h2.26v11.99h-2.26z" fill="#7a5ca6"/><path d="m105.32 11h4.38c4.12 0 6.01 2.21 6.01 6.06 0 3.78-1.97 5.93-6.02 5.93h-4.36v-11.99zm4.16 10.04c2.85 0 3.98-1.4 3.98-4.07 0-2.6-1.06-4.02-3.79-4.02h-2.09v8.09z" fill="#7a5ca6"/><path d="m67.75 30.41v5.45h-1.39l-.01-1.51c-.56.92-1.69 1.65-3.27 1.65-2.92 0-4.56-2.21-4.56-5.3 0-3.25 1.83-5.3 4.8-5.3 2.14 0 3.61 1.13 4.23 2.76l-1.42.55c-.47-1.2-1.43-1.91-2.8-1.91-2.06 0-3.19 1.59-3.19 3.87 0 2.09.93 3.88 3.12 3.88 1.74 0 2.81-1.13 2.97-2.82h-2.65v-1.31h4.17z" fill="#8c8bc3"/><path d="m71.66 25.55h4.56c1.98 0 3.36 1.12 3.36 2.93 0 1.41-.8 2.38-2.1 2.72l2.47 4.67h-1.85l-2.23-4.45h-2.6v4.45h-1.62v-10.32zm4.61 4.55c1.14 0 1.69-.63 1.69-1.57 0-1-.63-1.58-1.84-1.58h-2.83v3.15z" fill="#8c8bc3"/><path d="m82.63 30.7c0-3.34 1.82-5.3 4.75-5.3 2.9 0 4.75 1.96 4.75 5.3 0 3.35-1.85 5.3-4.75 5.3-2.92 0-4.75-1.95-4.75-5.3zm7.91 0c0-2.37-1.17-3.87-3.16-3.87-2.01 0-3.16 1.5-3.16 3.87s1.14 3.88 3.16 3.88c1.98 0 3.16-1.51 3.16-3.88z" fill="#8c8bc3"/><path d="m95.58 32.13v-6.58h1.62v6.64c0 1.47.82 2.34 2.2 2.34s2.21-.88 2.21-2.34v-6.64h1.63v6.5c0 2.49-1.36 3.95-3.84 3.95-2.47 0-3.82-1.44-3.82-3.87z" fill="#8c8bc3"/><path d="m107.34 25.55h4.9c2.14 0 3.46 1.24 3.46 3.3 0 2.01-1.26 3.17-3.46 3.17h-3.28v3.84h-1.62zm4.76 5.07c1.36 0 1.99-.61 1.99-1.79s-.63-1.88-1.99-1.88h-3.14v3.67z" fill="#8c8bc3"/></svg>