<svg enable-background="new 0 0 81.2 44.8" viewBox="0 0 81.2 44.8" xmlns="http://www.w3.org/2000/svg" xmlns:xlink="http://www.w3.org/1999/xlink"><linearGradient id="a" gradientTransform="matrix(1 0 0 -1 0 45.9002)" gradientUnits="userSpaceOnUse" x1="49.9703" x2="56.3821" y1="18.1109" y2="28.9435"><stop offset=".006847931" stop-color="#059dff"/><stop offset="1" stop-color="#fb5343"/></linearGradient><path d="m59.7 1c11.4 0 20.6 9.2 20.6 20.6v1.6c0 11.4-9.2 20.6-20.6 20.6-11.4 0-20.6-9.2-20.6-20.6v-1.6c0-11.4 9.2-20.6 20.6-20.6z" fill="#0f121a"/><g clip-rule="evenodd" fill-rule="evenodd"><path d="m68.9 22.7c-.7-.5-1.5-.8-2.3-1v-.2c.7-.2 1.3-.5 1.9-.9 1.2-1 1.9-2.4 1.9-4.1 0-1.8-.7-3.3-2.1-4.5s-3.3-1.8-5.7-1.8h-.8l-2.8 4.8h3c1 0 1.8.2 2.3.7s.8 1 .8 1.8c0 .7-.3 1.3-.8 1.8s-1.3.7-2.3.7h-1.4l-3.1 4.5h4.8c1.2 0 2.2.3 2.8.8s.9 1.2.9 2c0 .9-.3 1.5-.9 2-.7.5-1.6.8-2.8.8h-6.8v-2.7l-5.2 7.3h12.3c2.8 0 4.9-.7 6.5-2s2.4-3 2.4-5.1c-.2-2.3-1-3.9-2.6-4.9z" fill="#fff"/><path d="m59.3 19.9h-4.5l5.8-9.5h-5l-7.6 14.1h4.3l-3.3 10z" fill="url(#a)"/></g></svg>