<svg enable-background="new 0 0 512 512" height="512" viewBox="0 0 512 512" width="512" xmlns="http://www.w3.org/2000/svg" xmlns:xlink="http://www.w3.org/1999/xlink"><linearGradient id="a"><stop offset="0" stop-color="#b096ed"/><stop offset=".3485" stop-color="#c7b6ef"/><stop offset=".7689" stop-color="#dfd7f2"/><stop offset="1" stop-color="#e8e3f3"/></linearGradient><linearGradient id="b" gradientUnits="userSpaceOnUse" x1="482.283" x2="310.76" xlink:href="#a" y1="524.167" y2="227.081"/><linearGradient id="c" gradientUnits="userSpaceOnUse" x1="83.256" x2="237.836" xlink:href="#a" y1="431.436" y2="163.694"/><linearGradient id="d"><stop offset="0" stop-color="#b096ed"/><stop offset=".0014" stop-color="#b096ed"/><stop offset=".299" stop-color="#cdbcf3"/><stop offset=".5742" stop-color="#e2d7f7"/><stop offset=".8165" stop-color="#efe8f9"/><stop offset="1" stop-color="#f3eefa"/></linearGradient><linearGradient id="e" gradientUnits="userSpaceOnUse" x1="-123.255" x2="278.874" xlink:href="#d" y1="342.729" y2="110.56"/><linearGradient id="f" gradientUnits="userSpaceOnUse" x1="413.244" x2="229.494" xlink:href="#a" y1="455.928" y2="137.664"/><linearGradient id="g" gradientUnits="userSpaceOnUse" x1="156.111" x2="321.711" xlink:href="#a" y1="356.586" y2="69.758"/><linearGradient id="h" gradientUnits="userSpaceOnUse" x1="46.135" x2="268.658" xlink:href="#d" y1="446.399" y2="317.926"/><path d="m470.369 123.766-214.369 123.767v264.467l214.369-123.766z" fill="url(#b)"/><path d="m41.631 123.766 214.369 123.767v264.467l-214.369-123.766z" fill="url(#c)"/><path d="m41.631 123.766 214.369-123.766 214.369 123.766-214.369 123.767z" fill="url(#e)"/><path d="m374.624 178.887-118.624-68.487v283.321l118.624-68.488z" fill="url(#f)"/><path d="m137.376 178.887 118.624-68.487v283.321l-118.624-68.488z" fill="url(#g)"/><path d="m137.376 325.233 118.624-68.487 118.624 68.487-118.624 68.488z" fill="url(#h)"/></svg>